<?xml version="1.0" encoding="UTF-8" standalone="no"?>
<!-- Created with Inkscape (http://www.inkscape.org/) -->

<svg
   version="1.1"
   id="svg5901"
   width="37.131783"
   height="35.883533"
   xmlns:inkscape="http://www.inkscape.org/namespaces/inkscape"
   xmlns:sodipodi="http://sodipodi.sourceforge.net/DTD/sodipodi-0.dtd"
   xmlns="http://www.w3.org/2000/svg"
   xmlns:svg="http://www.w3.org/2000/svg">
  <defs
     id="defs5905" />
  <g
     id="g5907"
     transform="matrix(6.9030255,0,0,6.9030255,-55.091729,-52.294118)">
    <g
       transform="matrix(0.06048642,0.03492185,-0.03492185,0.06048642,42.188554,-52.102613)"
       id="g3625">
      <path
         style="color:#000000;text-indent:0;text-transform:none;direction:ltr;baseline-shift:baseline;enable-background:accumulate"
         d="m 10.596955,981.32904 c 1.0125,-0.0199 2.041,0.23889 2.9722,0.82157 0,3e-4 10e-4,6e-4 0.0013,9e-4 l 14.6715,9.19594 c 1.2188,-2.64259 3.8818,-4.40893 6.7075,-3.7025 l 0.0063,0.002 15.1781,3.76125 11.6272,-6.33781 c 0.2227,-0.12137 0.4687,-0.19982 0.7206,-0.22981 0.2519,-0.03 0.5094,-0.0115 0.7544,0.0542 l 16.1069,4.31532 0.5931,-2.21969 c 0.0677,-0.25311 0.1856,-0.49267 0.3451,-0.70058 0.1594,-0.20792 0.3601,-0.38403 0.587,-0.51505 0.2269,-0.13102 0.4798,-0.21684 0.7395,-0.251 0.2598,-0.0342 0.5263,-0.0166 0.7793,0.0513 l 11.06,2.97 c 0.2527,0.0679 0.4919,0.18592 0.6994,0.34528 0.2076,0.15936 0.3834,0.35991 0.5142,0.58654 0.1308,0.22663 0.2165,0.47916 0.2507,0.73859 0.0342,0.25943 0.0168,0.52556 -0.0508,0.77834 l -8.28,30.91997 c -0.0678,0.253 -0.1858,0.4924 -0.3452,0.7002 -0.1595,0.2077 -0.3601,0.3837 -0.587,0.5146 -0.2268,0.1309 -0.4795,0.2167 -0.7392,0.2508 -0.2596,0.034 -0.526,0.017 -0.7789,-0.051 l -10.77,-2.89 c -0.2494,-0.067 -0.4856,-0.1827 -0.6913,-0.3389 -0.2057,-0.1562 -0.3806,-0.3527 -0.5121,-0.575 -0.1314,-0.2223 -0.2192,-0.4703 -0.2569,-0.7257 -0.0378,-0.2555 -0.0254,-0.5183 0.0362,-0.7691 l 0.9475,-3.8553 c -3.9163,-0.3411 -6.8956,0.1788 -15.68,1.0819 0,0 0,0 -0.001,0 -7.734,0.798 -11.0508,1.7893 -19.431,-0.4575 v 3e-4 c 0,-10e-5 -10e-4,-5e-4 -0.0015,-6e-4 -9.0344,-2.4158 -15.4281,-10.0778 -18.9447,-13.28 l -11.2988,-9.81161 c -0.0019,-0.002 -0.0037,-0.003 -0.0056,-0.005 -0.9867,-0.86334 -1.7995,-1.94731 -2.2075,-3.25812 -0.408,-1.31082 -0.3258,-2.89493 0.4481,-4.24938 0.0022,-0.004 0.0044,-0.008 0.0066,-0.0116 1.0218,-1.76032 2.8955,-2.81505 4.8284,-2.85313 z m 0.1138,4.00531 c -0.5691,-0.004 -1.1603,0.3057 -1.4794,0.85063 -0.2222,0.39169 -0.2297,0.64763 -0.0984,1.06937 0.1315,0.42267 0.4867,0.96602 1.0168,1.43157 0.002,0.002 0.0037,0.003 0.0057,0.005 l 11.3143,9.825 c 0.0115,0.0101 0.0229,0.0203 0.0341,0.0306 3.9858,3.62448 9.8869,10.40568 17.3009,12.38748 10e-4,10e-5 0.0011,2e-4 0.0016,3e-4 7.8785,2.1126 10.0218,1.1644 17.9869,0.3425 0,-10e-5 10e-4,-2e-4 10e-4,-3e-4 9.1153,-0.937 12.4194,-1.5076 17.0537,-1.0272 l 1.5385,-6.2603 c 0.0604,-0.2564 0.1721,-0.5006 0.3265,-0.714 0.1544,-0.2134 0.3515,-0.3958 0.5762,-0.5333 0.2246,-0.1376 0.4767,-0.2301 0.737,-0.2705 0.2603,-0.04 0.5286,-0.029 0.7844,0.034 0.2558,0.063 0.499,0.1768 0.7109,0.3333 0.2119,0.1564 0.3924,0.3552 0.5278,0.5812 0.1354,0.226 0.2255,0.479 0.2634,0.7396 0.038,0.2607 0.0238,0.5289 -0.0415,0.7841 l -2.9828,12.1384 6.9459,1.8638 7.2456,-27.05631 -7.1959,-1.93218 -2.0431,7.64531 c -0.0644,0.25634 -0.1803,0.49965 -0.3387,0.71124 -0.1584,0.21159 -0.3592,0.39129 -0.587,0.52531 -0.2278,0.13402 -0.4824,0.22225 -0.7443,0.25792 -0.2619,0.0357 -0.5309,0.0187 -0.7862,-0.0495 -0.2554,-0.0682 -0.4969,-0.18769 -0.7061,-0.34922 -0.2092,-0.16153 -0.3859,-0.365 -0.5165,-0.59479 -0.1306,-0.22978 -0.2151,-0.4857 -0.2468,-0.74809 -0.0318,-0.2624 -0.0108,-0.53106 0.0612,-0.78537 l 0.9341,-3.49594 -15.3372,-4.10906 -11.6075,6.32719 c -0.2171,0.11837 -0.4564,0.19597 -0.7017,0.22757 -0.2453,0.0316 -0.4964,0.0172 -0.7365,-0.0423 l -15.94,-3.95 c -0.0021,-5e-4 -0.0041,-10e-4 -0.0062,-0.002 -0.6628,-0.16654 -1.8767,0.46003 -2.3109,2.05812 -0.4252,1.61071 0.3191,2.77479 0.9356,2.94031 v 0 l 18.4797,4.94999 c 0.2562,0.065 0.4993,0.1808 0.7107,0.3393 0.2113,0.1586 0.3908,0.3595 0.5246,0.5874 0.1338,0.2278 0.2217,0.4825 0.2572,0.7443 0.0355,0.2618 0.0183,0.5307 -0.05,0.7859 -0.0684,0.2553 -0.188,0.4967 -0.3496,0.7057 -0.1616,0.2091 -0.365,0.3856 -0.5948,0.5161 -0.2298,0.1305 -0.4857,0.2148 -0.748,0.2464 -0.2623,0.032 -0.5309,0.011 -0.7851,-0.061 l -18.48,-4.95 v 0 c -2.2289,-0.59739 -3.5755,-2.50125 -3.9279,-4.69528 l -16.1965,-10.15187 v -3e-4 c -0.2219,-0.13839 -0.4764,-0.20461 -0.7353,-0.20626 z"
         fill="#ffffff"
         fill-opacity="1"
         fill-rule="evenodd"
         stroke="none"
         marker="none"
         visibility="visible"
         display="inline"
         overflow="visible"
         id="path3623" />
    </g>
  </g>
</svg>
