<?xml version="1.0" encoding="UTF-8" standalone="no"?>
<!-- Created with Inkscape (http://www.inkscape.org/) -->

<svg
   version="1.1"
   id="svg9213"
   width="45.206268"
   height="39.041771"
   xmlns:inkscape="http://www.inkscape.org/namespaces/inkscape"
   xmlns:sodipodi="http://sodipodi.sourceforge.net/DTD/sodipodi-0.dtd"
   xmlns="http://www.w3.org/2000/svg"
   xmlns:svg="http://www.w3.org/2000/svg">
  <defs
     id="defs9217" />
  <g
     id="g9219"
     transform="matrix(6.9030255,0,0,6.9030255,-131.01329,-52.313182)">
    <g
       id="g3747"
       transform="matrix(0.92368299,0,0,0.92368299,14.750668,23.619406)">
      <g
         id="g3852"
         transform="matrix(0.23552443,0,0,0.23552443,3.1435372,-15.984578)">
        <g
           stroke="none"
           stroke-width="1"
           fill="none"
           fill-rule="evenodd"
           id="g3835">
          <g
             transform="translate(-129,-83)"
             fill="#ffffff"
             fill-rule="nonzero"
             id="g3833">
            <path
               d="m 156.72387,77.140282 c -1.82247,0.105782 -3.92852,1.321514 -6.36241,3.613559 l -0.2206,0.211458 -0.2206,-0.211458 c -2.5498,-2.401189 -4.73977,-3.621118 -6.62084,-3.621118 -4.25268,0 -8.20973,3.297537 -8.20973,8.893874 0,3.731024 3.50825,8.314454 10.49667,13.857125 l 0.97454,0.761778 1.01766,0.77372 1.06078,0.78574 c 0.36078,0.26392 0.72872,0.52985 1.10387,0.79781 0.23787,0.1699 0.55743,0.1699 0.7953,0 0.37513,-0.26796 0.74309,-0.53389 1.10387,-0.79781 l 1.06078,-0.78574 1.01766,-0.77372 0.97454,-0.761778 c 6.98842,-5.542671 10.49667,-10.126101 10.49667,-13.857125 0,-5.596337 -3.95705,-8.893874 -8.20973,-8.893874 z m 0.25843,1.36073 c 3.54656,0 6.84144,2.745736 6.84144,7.525585 l -0.005,0.225332 c -0.1439,3.028154 -3.16607,7.00522 -9.08884,11.846113 l -0.91019,0.7326 -0.95369,0.7455 -0.99724,0.758318 c -0.16985,0.12746 -0.3415,0.25544 -0.51495,0.38395 l -1.21395,0.88478 -0.68536,-0.49763 c -0.1771,-0.12958 -0.35238,-0.25864 -0.52585,-0.38715 l -1.01902,-0.764708 c -0.1662,-0.12639 -0.3306,-0.25224 -0.49317,-0.37756 l -0.95371,-0.7455 -0.91017,-0.7326 c -6.07077,-4.961915 -9.09415,-9.016272 -9.09415,-12.071445 0,-4.779849 3.29488,-7.525585 6.84144,-7.525585 1.59668,0 3.73796,1.284761 6.35768,3.904483 0.26717,0.267176 0.70035,0.267176 0.96752,0 2.61972,-2.619722 4.761,-3.904483 6.35768,-3.904483 z"
               id="path3831"
               style="stroke-width:1.36829" />
          </g>
        </g>
      </g>
    </g>
  </g>
</svg>
