<svg width="126" height="126" viewBox="0 0 126 126" fill="none" xmlns="http://www.w3.org/2000/svg">
<g clip-path="url(#clip0)">
<path d="M101.99 52.663C101.99 44.7508 97.0252 36.243 88.8506 34.7967C88.0802 25.9911 80.676 19.1849 71.7738 19.0999C68.6923 19.0999 65.6536 19.9081 63.0001 21.5246C60.3465 19.9506 57.3078 19.0999 54.2263 19.0999C45.0245 19.2275 37.4491 26.2464 36.6787 35.3497C29.1033 37.7319 23.9675 44.7508 24.0531 52.663C24.0531 56.3639 25.1658 59.9371 27.2202 62.9999C25.123 66.0627 24.0531 69.636 24.0531 73.3368C24.0531 81.2491 29.0177 89.7568 37.1923 91.2031C37.9627 100.009 45.3669 106.815 54.2691 106.9C57.3506 106.9 60.3893 106.092 63.0429 104.475C65.6964 106.049 68.7351 106.9 71.8166 106.9C81.0184 106.772 88.5938 99.7534 89.3642 90.6501C96.9396 88.268 102.075 81.2491 101.99 73.3368C101.99 69.636 100.877 66.0627 98.8227 62.9999C100.877 59.9371 101.99 56.3639 101.99 52.663ZM60.3893 42.326C60.3893 45.1761 58.0782 47.4732 55.2107 47.4732C52.3431 47.4732 50.032 45.1761 50.032 42.326H44.8533C44.8533 48.0262 49.5184 52.663 55.2535 52.663C57.0938 52.663 58.8914 52.1525 60.4321 51.2167V99.9661C58.5918 101.115 56.4518 101.71 54.2691 101.71C48.1916 101.583 43.1414 96.9884 42.4566 90.9479C47.9776 89.4165 51.1876 83.7589 49.6896 78.2713C48.4484 73.8048 44.3397 70.6994 39.6747 70.6994V75.8466C42.5422 75.8466 44.8533 78.1437 44.8533 80.9938C44.8533 83.8439 42.5422 86.141 39.6747 86.141C33.4688 86.141 29.2745 79.4624 29.2745 73.2092C29.2745 70.0188 30.4301 66.956 32.4844 64.5738C33.3404 63.5955 33.3404 62.1491 32.4844 61.2133C30.3873 58.8311 29.2745 55.7258 29.2745 52.5779C29.1461 46.3672 33.5544 41.0073 39.6747 39.8588C40.9586 39.5185 41.8146 38.3699 41.8146 37.0938C41.6862 30.1174 47.2501 24.3321 54.2691 24.162C56.4518 24.162 58.5918 24.8001 60.4321 25.9061L60.3893 42.326ZM93.5585 64.7015C95.6556 67.0836 96.7684 70.189 96.7684 73.3368C96.8968 79.5475 92.4885 84.9074 86.3683 86.0559C85.0843 86.3963 84.2283 87.5448 84.2283 88.821C84.3567 95.7973 78.7929 101.583 71.7738 101.753C69.5911 101.753 67.4511 101.115 65.6108 100.009V70.7845C65.6108 67.9344 67.9219 65.6373 70.7895 65.6373C73.657 65.6373 75.9681 67.9344 75.9681 70.7845H81.1468C81.1468 65.0843 76.4817 60.4476 70.7467 60.4476C68.9063 60.4476 67.1088 60.958 65.568 61.8939V26.0337C67.4083 24.8851 69.5483 24.2896 71.731 24.2896C77.8085 24.4172 82.8588 29.0114 83.5435 35.0519C78.0225 36.5833 74.8126 42.241 76.3105 47.7285C77.5517 52.195 81.6604 55.3004 86.3255 55.3004V50.1532C83.4579 50.1532 81.1468 47.8561 81.1468 45.006C81.1468 42.1559 83.4579 39.8588 86.3255 39.8588C92.5313 39.8588 96.7256 46.5374 96.7256 52.7906C96.7256 55.981 95.57 59.0438 93.5157 61.426C92.7025 62.2767 92.7025 63.7231 93.5585 64.7015Z" fill="#0a143e"/>
<path d="M54.2262 107.751C45.0245 107.623 37.4919 100.859 36.3791 91.8838C32.6128 91.033 29.2317 88.6508 26.8349 85.1626C24.5238 81.8021 23.197 77.4631 23.197 73.2943C23.197 69.636 24.2242 66.0627 26.193 62.9574C24.2242 59.852 23.1542 56.3213 23.197 52.6204C23.1114 44.453 28.1617 37.3065 35.9083 34.6691C36.9783 25.3956 44.7677 18.3342 54.269 18.2065C57.3506 18.2065 60.3893 18.9722 63.0428 20.4611C65.6964 18.9722 68.7351 18.2065 71.8166 18.2065C80.9756 18.3342 88.551 25.0978 89.6637 34.0735C93.4301 34.9243 96.8112 37.3065 99.2079 40.7947C101.519 44.1552 102.846 48.4942 102.846 52.6204C102.846 56.2788 101.819 59.852 99.8499 62.9574C101.819 66.0627 102.889 69.5934 102.846 73.2943C102.931 81.4618 97.8811 88.6083 90.1345 91.2457C89.0646 100.562 81.2752 107.581 71.7738 107.708C68.6923 107.708 65.6536 106.943 63 105.454C60.3465 106.985 57.3078 107.751 54.2262 107.751ZM54.2262 19.9506C45.4525 20.0783 38.2623 26.7143 37.4919 35.4348L37.4491 35.9878L36.9355 36.1579C29.6597 38.455 24.8234 45.0485 24.909 52.663C24.909 56.1937 25.9362 59.5968 27.9477 62.532L28.2901 62.9999L27.9477 63.4678C25.979 66.403 24.909 69.8061 24.909 73.3369C24.909 82.9932 31.3288 89.2889 37.3207 90.3524L37.9627 90.48L38.0055 91.1181C38.7758 99.5408 45.7521 105.964 54.2262 106.049C57.1794 106.049 60.0469 105.241 62.572 103.752L63 103.497L63.428 103.752C65.9531 105.241 68.8207 106.049 71.7738 106.049C80.5476 105.922 87.7378 99.2855 88.4654 90.5651L88.5082 90.0121L89.0646 89.8419C96.3404 87.5448 101.177 80.9513 101.091 73.3369C101.091 69.8061 100.064 66.403 98.0523 63.4678L97.7099 62.9999L98.0523 62.532C100.021 59.5968 101.091 56.1937 101.091 52.663C101.091 43.0067 94.6712 36.7109 88.6794 35.6475L88.0374 35.5198L87.9946 34.8818C87.2242 26.4591 80.248 20.0357 71.7738 19.9506C68.8635 19.9506 65.9532 20.7589 63.4708 22.2477L63.0428 22.503L62.6148 22.2477C60.0469 20.7589 57.1794 19.9506 54.2262 19.9506ZM71.8166 102.604C69.4627 102.604 67.1515 101.923 65.1828 100.732L64.7548 100.477V70.7845C64.7548 67.4665 67.4511 64.7866 70.7894 64.7866C73.8281 64.7866 76.3533 67.0411 76.7813 69.9337H80.2908C79.8628 65.1269 75.7541 61.2984 70.7894 61.2984C69.1203 61.2984 67.4511 61.7663 66.0387 62.6171L64.7548 63.3828V25.5658L65.1828 25.3105C67.1943 24.0769 69.4627 23.4388 71.8166 23.4388C78.322 23.5664 83.7575 28.5435 84.4851 34.9668L84.5707 35.69L83.8859 35.9027C81.4464 36.5833 79.392 38.1573 78.1508 40.3693C76.9097 42.5813 76.5673 45.1336 77.2521 47.5583C78.322 51.3868 81.6604 54.1093 85.5979 54.4496V50.9614C82.6447 50.536 80.4192 48.0263 80.4192 45.006C80.4192 41.688 83.1155 39.008 86.4538 39.008C93.1733 39.008 97.7099 46.112 97.7099 52.7906C97.7099 56.1512 96.5116 59.4267 94.286 61.979C93.7296 62.6171 93.7296 63.5955 94.286 64.2335C96.5116 66.7859 97.7099 70.0614 97.7099 73.4219C97.8383 80.0155 93.1733 85.7157 86.625 86.9918C85.7262 87.2045 85.1271 88.0127 85.1699 88.9061C85.2555 96.2653 79.2636 102.433 71.8166 102.604ZM66.4667 99.4982C68.0931 100.392 69.9334 100.902 71.8166 100.902C78.322 100.774 83.5435 95.3294 83.4151 88.8635C83.3723 87.162 84.5279 85.6731 86.197 85.2477H86.2398C91.9749 84.1842 96.0408 79.1647 95.9552 73.3794C95.9552 70.4017 94.8852 67.509 92.9593 65.297C91.8465 64.0209 91.8465 62.0641 92.9593 60.7879C94.8852 58.5333 95.9552 55.6832 95.9552 52.7055C95.9552 45.4739 91.0333 40.6245 86.411 40.6245C84.0143 40.6245 82.0883 42.5813 82.0883 44.9209C82.0883 47.2606 84.0571 49.2173 86.411 49.2173H87.267V56.0661H86.411C86.411 56.0661 86.411 56.0661 86.3682 56.0661C81.3608 56.0661 76.9097 52.7055 75.5401 47.8986C74.7269 45.006 75.1121 42.0283 76.6101 39.4334C77.9796 37.0512 80.0768 35.3071 82.6447 34.4138C81.746 29.1816 77.1665 25.2254 71.7738 25.0978C69.9334 25.0978 68.0931 25.6083 66.4667 26.5016V60.4476C67.8363 59.8521 69.2915 59.5543 70.7894 59.5543C76.9953 59.5543 82.0455 64.5739 82.0455 70.742V71.5928H75.1549V70.742C75.1549 68.3598 73.1862 66.4456 70.8322 66.4456C68.4783 66.4456 66.5095 68.4024 66.5095 70.742V99.4982H66.4667ZM54.2262 102.604C47.7208 102.476 42.2854 97.4989 41.5578 91.0755L41.4722 90.3524L42.157 90.1397C44.5965 89.4591 46.6508 87.8851 47.892 85.6731C49.1332 83.4611 49.4756 80.9088 48.7908 78.4841C47.7208 74.6556 44.3825 71.9331 40.445 71.5928V75.0809C43.3981 75.5063 45.6237 78.0161 45.6237 81.0364C45.6237 84.3544 42.9273 87.0344 39.589 87.0344C32.8696 87.0344 28.3329 79.9304 28.3329 73.2518C28.3329 69.8912 29.5313 66.6157 31.7568 64.0634C32.3132 63.4253 32.3132 62.4469 31.7568 61.8088C29.5313 59.2565 28.3329 55.981 28.3329 52.6204C28.2473 46.0695 32.9124 40.3693 39.4178 39.1356C40.3166 38.9229 40.9158 38.1147 40.873 37.2214C40.7446 29.7771 46.6936 23.609 54.1834 23.4388C56.5374 23.4388 58.8485 24.1194 60.8173 25.3105L61.2453 25.5658V42.3686C61.2453 45.6866 58.5489 48.3666 55.2106 48.3666C52.1719 48.3666 49.6468 46.112 49.2188 43.2194H45.7093C46.1373 48.0263 50.2459 51.8548 55.2106 51.8548C56.8798 51.8548 58.5489 51.3868 59.9613 50.536L61.2453 49.7703V100.477L60.8173 100.732C58.8485 101.923 56.5802 102.604 54.2262 102.604ZM43.3553 91.586C44.2541 96.8183 48.8336 100.774 54.2262 100.902C56.0666 100.902 57.907 100.392 59.5333 99.4982V52.6204C58.1637 53.216 56.7086 53.5138 55.2106 53.5138C49.0048 53.5138 43.9545 48.4942 43.9545 42.3261V41.4753H50.8451V42.3261C50.8451 44.7082 52.7711 46.6225 55.1678 46.6225C57.5646 46.6225 59.4905 44.6657 59.4905 42.3261V26.5016C57.8642 25.6083 56.0238 25.0978 54.1406 25.0978C47.6352 25.2254 42.4137 30.6279 42.5421 37.1363C42.5421 38.8379 41.4294 40.3267 39.7602 40.7521H39.7174C33.9824 41.8156 29.9165 46.8352 30.0021 52.6204C30.0021 55.5982 31.072 58.4908 32.998 60.7028C34.1108 61.979 34.1108 63.8932 32.998 65.2119C31.072 67.4665 30.0021 70.3166 30.0021 73.2943C30.0021 80.5259 34.9239 85.3753 39.5462 85.3753C41.943 85.3753 43.8689 83.4186 43.8689 81.0789C43.8689 78.7393 41.943 76.7825 39.5462 76.7825H38.6902V69.9337H39.5462C39.5462 69.9337 39.5462 69.9337 39.589 69.9337C44.5965 69.9337 49.0476 73.2943 50.4171 78.1012C51.2303 80.9938 50.8451 83.9716 49.3472 86.5664C48.0632 88.9486 45.9233 90.6927 43.3553 91.586Z" fill="#0a143e"/>
<path d="M41.258 14.6333L30.9006 12.5064L33.169 1.53137" fill="#0a143e"/>
<path d="M41.8144 15.4416L29.8735 13.1445L32.7839 0.893311L33.5542 2.12694L31.9279 11.8258L41.0013 14.208L41.8144 15.4416Z" fill="#0a143e"/>
<path d="M110.079 32.3295C125.872 56.1087 121.634 87.3322 101.562 106.262L104.601 110.856C127.198 90.1823 132.077 55.6408 114.658 29.3518C97.1963 3.0628 63.3424 -6.12558 35.3091 6.33829L38.3478 10.9325C63.8132 0.0425455 94.3288 8.50777 110.079 32.3295Z" fill="#0a143e"/>
<path d="M125.487 72.3157C123.561 87.3745 116.328 101.285 105.2 111.494L104.472 112.175L100.492 106.177L101.006 105.666C110.678 96.5628 116.884 84.2691 118.467 70.997C120.094 57.5973 116.884 44.0274 109.394 32.7972C101.947 21.5669 90.6482 13.2718 77.6373 9.44334C64.7549 5.69993 50.9308 6.50817 38.7331 11.7404L38.0911 12.0382L34.1108 6.04024L35.0096 5.61485C48.7909 -0.595817 64.4981 -1.70183 79.1781 2.46698C94.0293 6.67832 106.869 16.0369 115.343 28.841C123.86 41.6452 127.455 57.0868 125.487 72.3157Z" fill="#0a143e"/>
<path d="M123.774 72.1033C125.7 57.2998 122.191 42.2836 113.931 29.8197C105.67 17.3558 93.1732 8.25251 78.7071 4.12624C64.7547 0.170131 49.8179 1.10599 36.593 6.72111L38.6902 9.86898C51.1018 4.72179 65.0971 3.99862 78.108 7.78458C91.504 11.6982 103.145 20.2485 110.806 31.819C118.51 43.3896 121.806 57.3848 120.136 71.1674C118.51 84.5672 112.304 97.031 102.675 106.347L104.772 109.495C115.215 99.6684 121.934 86.3963 123.774 72.1033Z" fill="#0a143e"/>
<path d="M84.7417 111.409L95.099 113.536L92.8307 124.511" fill="#0a143e"/>
<path d="M84.1853 110.558L96.1262 112.856L93.2159 125.107L92.4455 123.873L94.1146 114.174L84.9985 111.792L84.1853 110.558Z" fill="#0a143e"/>
<path d="M15.9212 93.7131C0.128422 69.9339 4.32271 38.7104 24.4382 19.7381L21.3995 15.1864C-1.19834 35.8177 -6.07742 70.4018 11.3417 96.6908C28.7609 122.98 62.6576 132.168 90.6481 119.662L87.6094 115.068C62.1868 125.957 31.6712 117.492 15.9212 93.7131Z" fill="#0a143e"/>
<path d="M21.5705 13.8677L25.5508 19.8657L25.0372 20.3761C15.3646 29.4794 9.15877 41.7731 7.57521 55.0453C5.94885 68.445 9.15877 82.0149 16.6486 93.2451C24.0956 104.475 35.3945 112.77 48.4054 116.599C61.2878 120.342 75.1119 119.534 87.3096 114.302L87.9516 114.004L91.9319 120.002L91.0331 120.427C77.209 126.596 61.5018 127.702 46.8218 123.533C31.9706 119.321 19.1309 109.963 10.6567 97.1587C2.13975 84.3545 -1.45536 68.9129 0.513392 53.7266C2.43934 38.6678 9.67236 24.7576 20.8001 14.5483L21.5705 13.8677ZM23.3252 19.6104L21.2281 16.4625C10.7851 26.3316 4.0229 39.6037 2.18255 53.8967C0.256598 68.7002 3.76611 83.7164 12.0263 96.1803C20.2865 108.644 32.7838 117.747 47.2498 121.874C61.2022 125.83 76.1391 124.894 89.3639 119.279L87.3096 116.131C74.8979 121.278 60.9027 122.001 47.8918 118.215C34.4957 114.302 22.8544 105.752 15.1934 94.181C7.48961 82.6104 4.1941 68.6151 5.86326 54.8326C7.48961 41.4328 13.6955 28.969 23.3252 19.6104Z" fill="#0a143e"/>
</g>
<defs>
<clipPath id="clip0">
<rect width="126" height="126" fill="white"/>
</clipPath>
</defs>
</svg>
