<?xml version="1.0" encoding="UTF-8" standalone="no"?>
<!-- Created with Inkscape (http://www.inkscape.org/) -->

<svg
   version="1.1"
   id="svg5241"
   width="48"
   height="43.972652"
   xmlns:inkscape="http://www.inkscape.org/namespaces/inkscape"
   xmlns:sodipodi="http://sodipodi.sourceforge.net/DTD/sodipodi-0.dtd"
   xmlns="http://www.w3.org/2000/svg"
   xmlns:svg="http://www.w3.org/2000/svg">
  <defs
     id="defs5245" />
  
  <g
     id="g5247"
     transform="translate(-109.86496,-74.061388)">
    <path
    fill="#ffffff"
    fill-opacity="1"
    fill-rule="evenodd"
    stroke="none"
    marker="none"
    visibility="visible"
    display="inline"
    overflow="visible"
       id="path4963"
       style="stroke-width:0.567835"
       d="m 128.71051,74.061388 a 3.3331911,3.3331911 0 0 0 -3.33174,3.329344 v 8.886212 a 3.3331911,3.3331911 0 0 0 3.33174,3.326941 h 1.55688 l 2.00958,2.514965 a 0.84607404,0.84607404 0 0 0 1.32934,0 l 2.00958,-2.514965 h 1.28382 a 3.3331911,3.3331911 0 0 0 3.33414,-3.326941 v -8.886212 a 3.3331911,3.3331911 0 0 0 -3.33414,-3.329344 z m 0,1.705393 h 8.1892 a 1.6296863,1.6296863 0 0 1 1.62875,1.623951 v 8.886212 a 1.6296863,1.6296863 0 0 1 -1.62875,1.623952 h -1.70299 a 0.85743076,0.85743076 0 0 0 -0.66587,0.323351 l -1.58801,1.98083 -1.6024,-1.997595 a 0.85743076,0.85743076 0 0 0 -0.66346,-0.32335 h -1.96647 a 1.6296863,1.6296863 0 0 1 -1.62874,-1.623952 v -8.869448 a 1.6296863,1.6296863 0 0 1 1.62874,-1.623951 z m 0.63712,2.083832 a 0.85175289,0.85175289 0 0 0 0,1.702989 h 7.20478 a 0.85175289,0.85175289 0 0 0 0,-1.702989 z m 14.90058,1.679038 a 2.9300283,2.9300283 0 0 0 -2.93173,2.931727 v 6.500589 a 2.9300283,2.9300283 0 0 0 2.93173,2.946112 h 1.13533 v 2.94849 a 0.84607404,0.84607404 0 0 0 0.47665,0.754497 0.81200396,0.81200396 0 0 0 0.37365,0.09102 0.86878745,0.86878745 0 0 0 0.51737,-0.170058 l 4.80957,-3.623949 h 3.37245 a 2.9300283,2.9300283 0 0 0 2.93173,-2.929348 v -6.517353 a 2.9300283,2.9300283 0 0 0 -2.93173,-2.931727 z m -14.90058,1.453883 a 0.85175289,0.85175289 0 0 0 0,1.703001 h 7.20478 a 0.85175289,0.85175289 0 0 0 0,-1.703001 z m 14.90058,0.251499 h 10.68502 a 1.2265236,1.2265236 0 0 1 1.22874,1.226345 v 6.500589 a 1.2265236,1.2265236 0 0 1 -1.22874,1.24311 h -3.65509 a 0.8517524,0.8517524 0 0 0 -0.51256,0.170069 l -3.67904,2.778434 v -2.102986 a 0.84607404,0.84607404 0 0 0 -0.87905,-0.845517 h -1.95928 a 1.2265236,1.2265236 0 0 1 -1.22635,-1.226346 v -6.517353 a 1.2265236,1.2265236 0 0 1 1.22635,-1.226345 z m -31.44187,0.567662 a 2.9300283,2.9300283 0 0 0 -2.94132,2.929335 v 6.500601 a 2.9300283,2.9300283 0 0 0 2.94132,2.948492 h 2.27065 l 4.82155,2.979639 a 0.8403957,0.8403957 0 0 0 0.44791,0.131734 0.82903901,0.82903901 0 0 0 0.40957,-0.107783 0.85743076,0.85743076 0 0 0 0.46468,-0.732925 v -2.270665 a 2.9357067,2.9357067 0 0 0 2.91976,-2.931728 V 84.73203 a 2.9300283,2.9300283 0 0 0 -2.91976,-2.929335 z m 38.51731,0.332942 a 2.4757604,2.4757604 0 0 0 -0.45029,0.02873 v 0.01678 a 2.7823912,2.7823912 0 0 0 -1.27665,0.567663 2.7710345,2.7710345 0 0 0 -1.26706,-0.567663 2.6177191,2.6177191 0 0 0 -2.22994,0.773652 2.5666139,2.5666139 0 0 0 -0.49581,2.543699 c 0.56783,2.15778 3.23197,3.797625 3.53293,3.973655 a 0.85743076,0.85743076 0 0 0 0.43593,0.119752 0.81200396,0.81200396 0 0 0 0.42635,-0.112567 c 0.30095,-0.17035 2.98069,-1.772842 3.57125,-3.976045 a 2.4757604,2.4757604 0 0 0 -2.24671,-3.367656 z m -38.52928,1.370048 h 8.42633 a 1.2265236,1.2265236 0 0 1 1.22874,1.226345 v 6.500601 a 1.2265236,1.2265236 0 0 1 -1.22874,1.245501 h -0.83354 a 0.85743076,0.85743076 0 0 0 -0.86945,0.821555 v 1.607187 l -3.74131,-2.316162 a 0.8403957,0.8403957 0 0 0 -0.44791,-0.131734 h -2.52215 a 1.2265236,1.2265236 0 0 1 -1.23832,-1.226347 V 84.73203 a 1.2265236,1.2265236 0 0 1 1.22635,-1.226345 z m 35.1736,0.340127 h 0.0503 a 1.3514472,1.3514472 0 0 1 0.82396,0.596408 0.86310911,0.86310911 0 0 0 0.74252,0.438322 0.85743076,0.85743076 0 0 0 0.7449,-0.433538 1.3741606,1.3741606 0 0 1 0.82874,-0.567664 0.94260596,0.94260596 0 0 1 0.67545,0.256294 1.0050678,1.0050678 0 0 1 0.091,0.960475 c -0.28392,1.056177 -1.54994,2.106371 -2.34491,2.651494 -0.79496,-0.567836 -2.04989,-1.608807 -2.32814,-2.670663 a 1.0164245,1.0164245 0 0 1 0.091,-0.974846 0.94828434,0.94828434 0 0 1 0.62515,-0.256282 z m -18.62034,0.265871 a 0.852691,0.852691 0 1 0 0,1.705382 h 5.28623 a 0.852691,0.852691 0 1 0 0,-1.705382 z m -14.04789,0.299401 a 2.4757604,2.4757604 0 0 0 -2.26585,3.370047 c 0.56783,2.180492 3.27029,3.78059 3.57125,3.973654 a 0.81200396,0.81200396 0 0 0 0.42634,0.114971 0.90853592,0.90853592 0 0 0 0.43114,-0.114971 c 0.30095,-0.181708 2.9642,-1.79884 3.53772,-3.973654 a 2.5666139,2.5666139 0 0 0 -0.49341,-2.543712 2.6177191,2.6177191 0 0 0 -2.23234,-0.795199 2.7426427,2.7426427 0 0 0 -1.26706,0.567664 2.7823912,2.7823912 0 0 0 -1.27664,-0.567664 2.4757604,2.4757604 0 0 0 -0.43115,-0.03113 z m 3.27665,1.683821 a 0.90285754,0.90285754 0 0 1 0.67545,0.249108 1.0164245,1.0164245 0 0 1 0.10299,0.982033 c -0.27256,1.033454 -1.47071,2.080104 -2.32813,2.67065 -0.80066,-0.567835 -2.06339,-1.59203 -2.34732,-2.653886 a 1.0050678,1.0050678 0 0 1 0.0862,-0.953288 0.9709977,0.9709977 0 0 1 0.62994,-0.261076 h 0.0455 a 1.3741606,1.3741606 0 0 1 0.82874,0.567663 0.84607404,0.84607404 0 0 0 0.73772,0.426339 0.86310911,0.86310911 0 0 0 0.74012,-0.426339 1.3741606,1.3741606 0 0 1 0.82874,-0.601204 z m 14.65627,7.817954 c -2.65179,0 -4.62994,1.88715 -4.62994,4.385621 0,2.49848 1.97247,5.29102 4.62994,5.29102 2.66314,0 4.6443,-2.79254 4.6443,-5.29102 0,-2.498471 -1.99251,-4.385621 -4.6443,-4.385621 z m 0,1.705393 v 0.02156 c 1.7035,0 2.94131,1.135718 2.94131,2.680227 0,1.544509 -1.32298,3.566471 -2.94131,3.566471 -1.61834,0 -2.92454,-1.964017 -2.92456,-3.58803 0,-1.624 1.22105,-2.680228 2.92456,-2.680228 z m -8.6443,0.651497 a 3.7477106,3.7477106 0 0 0 -3.93532,3.724546 c 0,2.100985 1.70372,4.457475 3.93532,4.457475 2.23159,0 3.93533,-2.35649 3.93533,-4.457475 a 3.7477106,3.7477106 0 0 0 -3.93533,-3.724546 z m 17.39399,0 a 3.7477106,3.7477106 0 0 0 -3.93533,3.724546 c 0,2.100985 1.70374,4.457475 3.93533,4.457475 2.23158,0 3.93532,-2.35649 3.93532,-4.457475 a 3.7477106,3.7477106 0 0 0 -3.93532,-3.724546 z m -17.39399,1.702988 a 2.0612408,2.0612408 0 0 1 2.22754,2.021558 h 0.005 c 0,1.237875 -1.0342,2.754485 -2.23234,2.754485 -1.19813,0 -2.22994,-1.51661 -2.22994,-2.754485 a 2.0612408,2.0612408 0 0 1 2.22994,-2.021558 z m 17.17363,0.01676 a 2.2429481,2.2429481 0 0 1 2.45269,2.004794 c 0,1.237869 -1.0342,2.754479 -2.23233,2.754479 -1.20382,0 -2.23234,-1.51661 -2.23234,-2.754479 a 2.2429481,2.2429481 0 0 1 2.01198,-2.004794 z m -8.47424,6.411973 a 37.840521,37.840521 0 0 0 -3.8491,0.26586 5.8543782,5.8543782 0 0 0 -4.97484,5.91138 l -0.71616,6.50777 a 0.85753423,0.85753423 0 0 0 1.70538,0.18203 l 0.70898,-6.5461 v -0.0982 a 4.1281601,4.1281601 0 0 1 3.497,-4.28024 35.773601,35.773601 0 0 1 3.61916,-0.23951 29.368423,29.368423 0 0 1 3.48023,0.25149 4.1849435,4.1849435 0 0 1 3.52575,4.29221 0.61894008,0.61894008 0 0 0 0,0.1006 l 0.81197,6.53173 a 0.8517524,0.8517524 0 0 0 0.82396,0.7497 h 0.1006 a 0.8517524,0.8517524 0 0 0 0.7449,-0.94851 l -0.77844,-6.50777 a 5.8486997,5.8486997 0 0 0 -4.96287,-5.91617 31.355845,31.355845 0 0 0 -3.73652,-0.25628 z m -8.74969,1.02275 a 25.80242,25.80242 0 0 0 -3.06108,0.22036 4.9174504,4.9174504 0 0 0 -4.16765,4.95808 l -0.62995,5.27424 a 0.8517524,0.8517524 0 0 0 0.74252,0.94371 h 0.103 a 0.8517524,0.8517524 0 0 0 0.85748,-0.7449 l 0.64191,-5.31976 a 0.61894008,0.61894008 0 0 0 0,-0.103 3.1969108,3.1969108 0 0 1 2.72095,-3.32214 23.814998,23.814998 0 0 1 2.80479,-0.2036 0.8517524,0.8517524 0 0 0 0,-1.70299 z m 17.47303,0 a 0.8517524,0.8517524 0 0 0 0,1.70299 23.729823,23.729823 0 0 1 2.80478,0.2036 3.1912324,3.1912324 0 0 1 2.73055,3.31736 0.62461843,0.62461843 0 0 0 0,0.1006 l 0.63712,5.32214 a 0.8517524,0.8517524 0 0 0 0.86227,0.76168 h 0.103 a 0.84607404,0.84607404 0 0 0 0.74252,-0.94372 l -0.64192,-5.28621 a 4.9117722,4.9117722 0 0 0 -4.17965,-4.95808 25.893273,25.893273 0 0 0 -3.05867,-0.22036 z m -21.20237,4.45987 a 0.85383729,0.85383729 0 0 0 -0.80718,0.79281 l 0.005,0.005 -0.36886,5.23592 a 0.84607404,0.84607404 0 0 0 0.79042,0.90779 h 0.0623 a 0.8517524,0.8517524 0 0 0 0.8455,-0.79521 l 0.36886,-5.23592 a 0.85383729,0.85383729 0 0 0 -0.89579,-0.91016 z m 7.87784,0 a 0.85383668,0.85383668 0 0 0 -0.91258,0.79281 l -0.44791,6.43832 a 0.8517524,0.8517524 0 0 0 0.79043,0.91498 h 0.0623 a 0.8517524,0.8517524 0 0 0 0.84551,-0.79521 l 0.45508,-6.44071 a 0.85383668,0.85383668 0 0 0 -0.79281,-0.91018 z m 9.07543,0.002 a 0.8517524,0.8517524 0 0 0 -0.78802,0.90779 l 0.44791,6.44071 a 0.85743076,0.85743076 0 0 0 0.83593,0.79521 h 0.0623 a 0.85743076,0.85743076 0 0 0 0.78802,-0.91497 l -0.45269,-6.43832 a 0.8517524,0.8517524 0 0 0 -0.89342,-0.79042 z m 7.87784,0.007 a 0.8517524,0.8517524 0 0 0 -0.79042,0.90779 l 0.36886,5.23592 a 0.8517524,0.8517524 0 0 0 0.85749,0.79521 h 0.0623 a 0.8517524,0.8517524 0 0 0 0.79042,-0.91018 l -0.36886,-5.23592 a 0.86310911,0.86310911 0 0 0 -0.91976,-0.79282 z" />
  </g>
</svg>
