<?xml version="1.0" encoding="UTF-8" standalone="no"?>
<!-- Created with Inkscape (http://www.inkscape.org/) -->

<svg
   version="1.1"
   id="svg4937"
   width="49.999798"
   height="45.326302"
   xmlns:inkscape="http://www.inkscape.org/namespaces/inkscape"
   xmlns:sodipodi="http://sodipodi.sourceforge.net/DTD/sodipodi-0.dtd"
   xmlns="http://www.w3.org/2000/svg"
   xmlns:svg="http://www.w3.org/2000/svg">
  <defs
     id="defs4941" />
  <sodipodi:namedview
     id="namedview4939"
     pagecolor="#505050"
     bordercolor="#eeeeee"
     borderopacity="1"
     inkscape:pageshadow="0"
     inkscape:pageopacity="0"
     inkscape:pagecheckerboard="0" />
  <inkscape:clipboard
     style="font-variation-settings:normal;opacity:1;vector-effect:none;fill:#000000;fill-opacity:1;stroke-width:0.7828422;stroke-linecap:butt;stroke-linejoin:miter;stroke-miterlimit:4;stroke-dasharray:none;stroke-dashoffset:0;stroke-opacity:1;-inkscape-stroke:none;stop-color:#000000;stop-opacity:1"
     min="474.07773,843.29192"
     max="524.07753,888.61822"
     geom-min="474.07773,843.29192"
     geom-max="524.07753,888.61822" />
  <g
     id="g4943"
     transform="matrix(3.7795276,0,0,3.7795276,-474.07774,-843.29193)">
    <path
    fill="#ffffff"
    fill-opacity="1"
    fill-rule="evenodd"
    stroke="none"
    marker="none"
    visibility="visible"
    display="inline"
    overflow="visible"
       id="path38"
       style="stroke-width:0.207127"
       d="m 132.01875,223.1212 a 0.19434685,0.19434685 0 0 0 -0.17315,0.19742 v 0.58295 a 0.194385,0.194385 0 1 0 0.38877,0 v -0.58295 a 0.19434685,0.19434685 0 0 0 -0.19742,-0.19742 0.19434685,0.19434685 0 0 0 -0.0182,0 z m -2.62349,0.87463 a 0.19434685,0.19434685 0 0 0 -0.13066,0.32202 l 0.87462,1.06841 a 0.19633598,0.19633598 0 1 0 0.30341,-0.2488 l -0.87422,-1.06881 a 0.19434685,0.19434685 0 0 0 -0.15494,-0.0728 0.19434685,0.19434685 0 0 0 -0.0182,0 z m 5.24656,0 a 0.19434685,0.19434685 0 0 0 -0.13026,0.0728 l -0.87463,1.06881 a 0.19647105,0.19647105 0 1 0 0.30381,0.2492 l 0.87423,-1.06881 a 0.19434685,0.19434685 0 0 0 -0.15454,-0.32202 0.19434685,0.19434685 0 0 0 -0.0186,0 z m -2.61701,1.16914 a 0.19434685,0.19434685 0 0 0 -0.15211,0.091 l -0.73465,1.19301 -1.37263,0.27347 a 0.19434685,0.19434685 0 0 0 -0.0971,0.32809 l 1.00206,1.00166 -0.18204,1.36332 a 0.19434685,0.19434685 0 0 0 0.267,0.20348 l 1.28443,-0.54937 1.28444,0.54937 a 0.19434685,0.19434685 0 0 0 0.2674,-0.20348 l -0.18245,-1.36332 1.00206,-1.00166 a 0.19434685,0.19434685 0 0 0 -0.0971,-0.32809 l -1.37263,-0.27347 -0.73465,-1.19301 a 0.19434685,0.19434685 0 0 0 -0.18205,-0.091 z m 0.015,0.56758 0.61046,0.99275 a 0.19434685,0.19434685 0 0 0 0.12743,0.0882 l 1.10239,0.2217 -0.81071,0.81071 a 0.19434685,0.19434685 0 0 0 -0.055,0.16101 l 0.14888,1.12018 -1.04737,-0.44904 a 0.19434685,0.19434685 0 0 0 -0.15171,0 l -1.04777,0.44904 0.14887,-1.12018 a 0.19434685,0.19434685 0 0 0 -0.0546,-0.16101 l -0.81071,-0.81071 1.10198,-0.2217 a 0.19434685,0.19434685 0 0 0 0.12784,-0.0882 z m 3.99287,0.59509 a 0.19452894,0.19452894 0 0 0 -0.0275,0.003 0.19434685,0.19434685 0 0 0 -0.015,0.003 l -0.58296,0.0971 a 0.19434685,0.19434685 0 1 0 0.0668,0.3827 l 0.58295,-0.0975 a 0.19470786,0.19470786 0 0 0 -0.0243,-0.38836 z m -8.00394,0.003 a 0.19434685,0.19434685 0 0 0 -0.006,0.38553 l 0.58295,0.0971 a 0.19434685,0.19434685 0 1 0 0.0667,-0.38229 l -0.58295,-0.0975 a 0.19434685,0.19434685 0 0 0 -0.0607,-0.003 z m -1.98187,0.58821 a 0.60067002,0.60067002 0 0 0 -0.6137,0.61167 v 2.56402 c 0,1.31319 1.72942,2.47318 2.33423,2.77559 a 0.53438919,0.53438919 0 0 1 0.25486,0.37906 h -0.1161 a 0.40182753,0.40182753 0 0 0 -0.40172,0.40171 v 1.06072 a 0.40182753,0.40182753 0 0 0 0.40172,0.40172 h 2.35082 a 0.41425518,0.41425518 0 0 0 0.39969,-0.35196 l 0.13471,-1.06072 a 0.39975625,0.39975625 0 0 0 -0.0975,-0.31474 0.41425518,0.41425518 0 0 0 -0.22331,-0.13673 v -0.0166 -0.15332 c 0.0203,-0.44924 0.0613,-1.33218 -0.55585,-2.12063 a 0.19475413,0.19475413 0 0 0 0.0574,-0.0583 l 0.29127,-0.48586 a 0.19434685,0.19434685 0 0 0 -0.17881,-0.29734 0.19434685,0.19434685 0 0 0 -0.15494,0.0971 l -0.27469,0.45755 a 2.5476694,2.5476694 0 0 0 -0.4628,-0.35358 2.7113002,2.7113002 0 0 1 -0.84712,-0.76216 l -0.43488,-0.78684 a 0.79122738,0.79122738 0 0 0 -0.98184,-0.35034 0.73116038,0.73116038 0 0 0 -0.16343,0.089 l -0.13472,-1.05829 a 0.60067002,0.60067002 0 0 0 -0.58335,-0.53077 z m 12.01259,0.007 a 0.60688384,0.60688384 0 0 0 -0.5963,0.52389 l -0.14119,1.06881 a 0.780871,0.780871 0 0 0 -0.16344,-0.089 0.79122738,0.79122738 0 0 0 -0.98183,0.34993 l -0.43489,0.78522 a 2.7195853,2.7195853 0 0 1 -0.84914,0.76217 2.6926587,2.6926587 0 0 0 -0.4628,0.35357 l -0.27954,-0.46604 a 0.19434685,0.19434685 0 0 0 -0.17921,-0.0971 0.19434685,0.19434685 0 0 0 -0.15495,0.29734 l 0.29128,0.48586 a 0.19475413,0.19475413 0 0 0 0.0659,0.0631 c -0.61964,0.79045 -0.57516,1.67465 -0.55666,2.12427 v 0.15333 0.0166 a 0.41425518,0.41425518 0 0 0 -0.22169,0.12824 0.39975625,0.39975625 0 0 0 -0.0975,0.31474 l 0.13269,1.06072 a 0.40182753,0.40182753 0 0 0 0.40818,0.35196 h 2.35082 a 0.40182753,0.40182753 0 0 0 0.40172,-0.40172 v -1.06072 a 0.40182753,0.40182753 0 0 0 -0.40172,-0.40171 h -0.11813 a 0.53231791,0.53231791 0 0 1 0.25689,-0.37906 c 0.60482,-0.30241 2.33423,-1.4624 2.33423,-2.77559 v -2.56604 a 0.60274129,0.60274129 0 0 0 -0.60277,-0.60277 z m 0.0146,0.40454 a 0.18682863,0.18682863 0 0 1 0.17396,0.19823 v 2.56604 c 0,1.01078 -1.44988,2.07156 -2.10648,2.40503 a 0.95485822,0.95485822 0 0 0 -0.48262,0.72049 0.13670421,0.13670421 0 0 0 0,0.0291 h -1.62587 v -0.17193 c -0.0207,-0.4764 -0.062,-1.36504 0.68368,-2.08584 a 2.1934812,2.1934812 0 0 1 0.39322,-0.30018 3.1504107,3.1504107 0 0 0 0.98184,-0.89081 l 0.43933,-0.79129 a 0.39975625,0.39975625 0 0 1 0.33537,-0.20713 0.36661584,0.36661584 0 0 1 0.37502,0.35641 l -0.0558,0.42679 a 0.72494655,0.72494655 0 0 1 -0.20713,0.41426 l -0.30867,0.30867 a 1.5306729,1.5306729 0 0 0 -0.43488,0.85925 0.20712759,0.20712759 0 0 0 0.20712,0.23424 0.20712759,0.20712759 0 0 0 0.20713,-0.17598 1.1267741,1.1267741 0 0 1 0.31676,-0.62138 l 0.30867,-0.30867 a 1.1350591,1.1350591 0 0 0 0.32525,-0.65658 l 0.2755,-2.1356 a 0.18682863,0.18682863 0 0 1 0.19863,-0.17315 z m -12.0405,0.01 a 0.18848611,0.18848611 0 0 1 0.18649,0.16344 l 0.28197,2.11901 a 1.1350591,1.1350591 0 0 0 0.32485,0.65658 l 0.30867,0.30867 a 1.1309167,1.1309167 0 0 1 0.31919,0.62138 0.20712759,0.20712759 0 0 0 0.20712,0.17598 0.20712759,0.20712759 0 0 0 0.20713,-0.23383 1.5368867,1.5368867 0 0 0 -0.43489,-0.85966 l -0.31311,-0.30462 a 0.72494655,0.72494655 0 0 1 -0.20713,-0.41426 l -0.0579,-0.41425 a 0.36868711,0.36868711 0 0 1 0.30462,-0.35196 0.39975625,0.39975625 0 0 1 0.41426,0.20713 l 0.42437,0.77026 0.0125,0.0186 a 3.1441968,3.1441968 0 0 0 0.97981,0.89081 2.056777,2.056777 0 0 1 0.39362,0.30017 c 0.74773,0.7208 0.70607,1.60945 0.68328,2.08584 v 0.17193 h -1.63396 v -0.0287 a 0.96107205,0.96107205 0 0 0 -0.48263,-0.72292 c -0.65866,-0.32933 -2.10445,-1.39425 -2.10445,-2.40503 v -2.56604 a 0.18641483,0.18641483 0 0 1 0.1861,-0.18852 z m 8.42305,0.93086 a 0.19434685,0.19434685 0 0 0 -0.021,0.003 0.19434685,0.19434685 0 0 0 -0.0485,0.37016 l 1.26299,0.58336 a 0.19434685,0.19434685 0 1 0 0.16384,-0.35236 l -1.26299,-0.58295 a 0.19434685,0.19434685 0 0 0 -0.0939,-0.0214 z m -4.85779,0.003 a 0.19434685,0.19434685 0 0 0 -0.07,0.0182 l -1.26299,0.58295 a 0.19434685,0.19434685 0 1 0 0.16384,0.35236 l 1.263,-0.58295 a 0.19434685,0.19434685 0 0 0 -0.0939,-0.37057 z m 2.42,1.64853 a 0.19434685,0.19434685 0 0 0 -0.17315,0.19741 v 1.36049 a 0.194385,0.194385 0 1 0 0.38877,0 v -1.36049 a 0.19434685,0.19434685 0 0 0 -0.19742,-0.19741 0.19434685,0.19434685 0 0 0 -0.0182,0 z m -1.64165,3.72829 -0.12015,1.04818 h -2.3403 v -1.03564 z m 5.79957,0 v 1.04818 h -2.32816 l -0.14281,-1.03564 z m -6.28139,0.32728 a 0.18641483,0.18641483 0 0 0 -0.18528,0.18852 0.18434355,0.18434355 0 0 0 0.1865,0.18447 0.1864966,0.1864966 0 1 0 -0.001,-0.37299 z m 4.30478,0 a 0.18641483,0.18641483 0 0 0 -0.18569,0.18852 0.18434355,0.18434355 0 0 0 0.18447,0.18447 0.1864966,0.1864966 0 1 0 10e-4,-0.37299 z" />
  </g>
</svg>
