<?xml version="1.0" encoding="UTF-8" standalone="no"?>
<!-- Created with Inkscape (http://www.inkscape.org/) -->

<svg
  version="1.1"
  id="svg9427"
  width="47.911041"
  height="43.98737"
  xmlns:inkscape="http://www.inkscape.org/namespaces/inkscape"
  xmlns:sodipodi="http://sodipodi.sourceforge.net/DTD/sodipodi-0.dtd"
  xmlns="http://www.w3.org/2000/svg"
  xmlns:svg="http://www.w3.org/2000/svg">
  <defs
    id="defs9431" />
  <g
    id="g9433"
    transform="matrix(6.9030255,0,0,6.9030255,-200.66616,-135.88871)">
    <g
      id="g4928"
      transform="matrix(0.13880913,0,0,0.13880913,1.9742338,37.846455)">
      <path
        d="m 245.19752,-116.11935 a 14.48,14.48 0 0 0 -4.44,-10.46 15.45,15.45 0 0 0 -20.71,-0.53 15.37,15.37 0 0 0 -20.61,0.66 14.17,14.17 0 0 0 -4.24,10.27 15.51,15.51 0 0 0 4.49,10.91 4.27,4.27 0 0 0 1.1,4.5 4.57,4.57 0 0 0 3.2,1.279997 4.69,4.69 0 0 0 0.52,0 4,4 0 0 0 1.29,3.62 4.58,4.58 0 0 0 3.2,1.28 4.69,4.69 0 0 0 0.52,0 4,4 0 0 0 1.29,3.62 4.57,4.57 0 0 0 3.2,1.28 4.68,4.68 0 0 0 0.52,-0.16 4.43,4.43 0 0 0 0,0.45 4.58,4.58 0 0 0 7.67,3.27 l 3,-3 a 4.4,4.4 0 0 0 0.85,-1.19 4.59,4.59 0 0 0 4.35,-1.13 4,4 0 0 0 1.29,-3.6 c 0.13,0 0.26,0 0.39,0 a 4.61,4.61 0 0 0 3.22,-1.3 4.05,4.05 0 0 0 1.28,-3.669997 4.34,4.34 0 0 0 3.79,-1.25 4.32,4.32 0 0 0 0.91,-5 14.45,14.45 0 0 0 3.92,-9.85 z m -43,13.91 a 2.38,2.38 0 0 1 0,-3.42 l 3,-3 a 2.61,2.61 0 0 1 3.61,0 2.38,2.38 0 0 1 0,3.42 l -3,3 a 2.61,2.61 0 0 1 -3.61,0 z m 5,4.859997 a 2.38,2.38 0 0 1 0,-3.419997 l 3,-3 a 2.6,2.6 0 0 1 3.61,0 2.38,2.38 0 0 1 0,3.42 l -3,2.999997 a 2.61,2.61 0 0 1 -3.61,0 z m 8.61,4.86 a 2.61,2.61 0 0 1 -3.61,0 2.38,2.38 0 0 1 0,-3.42 l 3,-3 a 2.61,2.61 0 0 1 3.61,0 2.38,2.38 0 0 1 0,3.42 z m 8.1,2 -3,3 a 2.61,2.61 0 0 1 -3.61,0 2.53,2.53 0 0 1 -0.76,-1.8 2.32,2.32 0 0 1 0.66,-1.76 l 3,-3 a 2.69,2.69 0 0 1 3.67,0.06 2.38,2.38 0 0 1 0.02,3.47 z m 15.03,-12.149997 a 2.59,2.59 0 0 1 -3.58,0 1,1 0 0 0 -0.35,-0.21 l -6.74,-6.55 a 1,1 0 0 0 -1.39,1.43 l 7,6.82 a 2.36,2.36 0 0 1 0,3.419997 2.59,2.59 0 0 1 -3.27,0.25 c -0.07,-0.08 -0.13,-0.17 -0.21,-0.25 l -7,-6.819997 a 1,1 0 1 0 -1.39,1.43 l 6.71,6.519997 a 1,1 0 0 0 0.21,0.3 c 0.1,0.1 0.21,0.17 0.32,0.25 a 2.34,2.34 0 0 1 0.51,1.45 2.38,2.38 0 0 1 -0.78,1.75 2.58,2.58 0 0 1 -2.36,0.64 v 0 a 4.36,4.36 0 0 0 -1.33,-3.15 4.73,4.73 0 0 0 -3.78,-1.26 4,4 0 0 0 -1.31,-3.679997 4.58,4.58 0 0 0 -3.71,-1.24 4,4 0 0 0 -1.29,-3.62 4.58,4.58 0 0 0 -3.71,-1.24 4,4 0 0 0 -1.29,-3.62 4.62,4.62 0 0 0 -6.39,0 l -3,3 v 0 a 13.51,13.51 0 0 1 -3.61,-9.16 12.19,12.19 0 0 1 3.64,-8.84 13.38,13.38 0 0 1 17.74,-0.73 l -6.1,6 a 4.23,4.23 0 0 0 -0.18,6.32 4.6,4.6 0 0 0 6.37,0 l 6.53,-6.35 7,7 v 0 l 6.77,6.72 a 2.36,2.36 0 0 1 -0.03,3.42 z m 1.1,-5.21 -6.44,-6.36 -7.7,-7.64 a 1,1 0 0 0 -0.15,-0.1 1,1 0 0 0 -0.18,-0.12 1,1 0 0 0 -0.17,0 0.53,0.53 0 0 0 -0.38,0 1,1 0 0 0 -0.19,0 1,1 0 0 0 -0.16,0.1 0.94,0.94 0 0 0 -0.16,0.11 l -7.23,7 a 2.59,2.59 0 0 1 -3.6,0 2.24,2.24 0 0 1 -0.7,-1.68 2.33,2.33 0 0 1 0.86,-1.71 l 6.93,-6.75 v 0 a 13.45,13.45 0 0 1 18.6,-0.15 12.52,12.52 0 0 1 0.67,17.3 z"
        fill="#ffffff"
        fill-opacity="1"
        fill-rule="evenodd"
        stroke="none"
        marker="none"
        visibility="visible"
        display="inline"
        overflow="visible"
        id="path4913" />
    </g>
  </g>
</svg>
