<?xml version="1.0" encoding="UTF-8" standalone="no"?>
<!-- Created with Inkscape (http://www.inkscape.org/) -->

<svg
   version="1.1"
   id="svg9260"
   width="55.769505"
   height="22.633787"
   xmlns:inkscape="http://www.inkscape.org/namespaces/inkscape"
   xmlns:sodipodi="http://sodipodi.sourceforge.net/DTD/sodipodi-0.dtd"
   xmlns="http://www.w3.org/2000/svg"
   xmlns:svg="http://www.w3.org/2000/svg">
  <defs
     id="defs9264" />
  <g
     id="g9266"
     transform="matrix(6.9030255,0,0,6.9030255,-201.72333,-56.367488)">
    <g
       id="g4029"
       transform="matrix(0.06597203,0,0,0.06557643,29.048526,15.315434)">
      <path
         d="m 51.534954,-59.030231 c -39.307356,0 -47.221548,-17.113078 -48.7986282,-24.525815 l -0.09998,-0.472671 0.09998,-0.472668 c 1.5770802,-7.41425 9.4973332,-24.528845 48.8062032,-24.528845 0.380258,0 0.763544,0.002 1.152891,0.004 18.964368,0.15911 37.46667,9.412501 51.85735,21.951901 6.82038,-6.450743 12.51818,-13.651391 16.59496,-20.806591 l 3.94952,2.24822 c -4.22979,7.421833 -10.13059,14.889113 -17.19943,21.603449 7.06884,6.712823 12.96964,14.180099 17.19943,21.601927 l -3.94952,2.248212 c -4.07527,-7.153678 -9.77458,-14.352806 -16.59496,-20.805053 -14.39068,12.540904 -32.894497,21.792812 -51.85735,21.950367 -0.389347,0.0015 -0.777178,0.0031 -1.160466,0.0031 z M 7.2872882,-84.030232 C 10.420243,-70.999992 27.342433,-63.352436 52.657547,-63.578166 70.334191,-63.726643 87.627549,-72.31953 101.185,-84.030232 87.629064,-95.740929 70.33722,-104.33384 52.657547,-104.4823 c -0.343898,-0.002 -0.687795,-0.004 -1.027148,-0.004 -24.768211,0 -41.252576,7.603642 -44.3431108,20.456624 z"
         fill="#ffffff"
         fill-opacity="1"
         fill-rule="evenodd"
         stroke="none"
         marker="none"
         visibility="visible"
         display="inline"
         overflow="visible"
         id="path4014"
         style="stroke-width:1.51497" />
    </g>
  </g>
</svg>
