<?xml version="1.0" encoding="UTF-8" standalone="no"?>
<!-- Created with Inkscape (http://www.inkscape.org/) -->

<svg
   version="1.1"
   id="svg8764"
   width="20.5576"
   height="20.5576"
   xmlns:inkscape="http://www.inkscape.org/namespaces/inkscape"
   xmlns:sodipodi="http://sodipodi.sourceforge.net/DTD/sodipodi-0.dtd"
   xmlns="http://www.w3.org/2000/svg"
   xmlns:svg="http://www.w3.org/2000/svg">
  <defs
     id="defs8768" />
  <g
     id="g8770"
     transform="translate(-188.48069,-257.38774)">
    <path
       d="m 199.49367,261.43048 v -1.10649 h 0.95016 c 0.28599,0 0.51796,-0.23197 0.51796,-0.51796 v -0.43198 c 0,-0.28622 -0.23197,-0.51796 -0.51796,-0.51796 h -0.95016 v -0.95039 c 0,-0.28622 -0.23151,-0.51796 -0.51842,-0.51796 h -0.4329 c -0.28599,0 -0.51772,0.23174 -0.51772,0.51796 v 0.95017 h -0.94994 c -0.28622,0 -0.51795,0.23173 -0.51795,0.51795 v 0.43198 c 0,0.28599 0.23173,0.51796 0.51795,0.51796 h 0.94994 v 1.10649 l -6.14445,3.06176 c -0.25565,0.12736 -0.4637,0.46278 -0.4637,0.74878 v 3.89881 l -2.47254,1.23225 c -0.25588,0.12759 -0.46325,0.46301 -0.46325,0.749 v 6.30653 c 0,0.28599 0.23174,0.51796 0.51796,0.51796 h 7.04013 c 0.28599,0 0.51796,-0.23197 0.51796,-0.51796 v -3.88732 c 0,-1.21662 0.98625,-2.20287 2.20241,-2.20287 1.21661,0 2.20287,0.98625 2.20287,2.20287 v 3.88709 c 0,0.28599 0.23173,0.51796 0.51795,0.51796 h 7.0399 c 0.28599,0 0.51842,-0.23197 0.51842,-0.51796 v -6.30653 c 0,-0.28599 -0.20783,-0.62141 -0.46417,-0.749 l -2.47231,-1.23202 v -3.89881 c 0,-0.28623 -0.20736,-0.62142 -0.4637,-0.74878 z m 8.07604,15.04673 h -5.14003 v -2.93715 c 0,-2.02792 -1.64285,-3.67122 -3.67076,-3.67122 -2.02746,0 -3.67076,1.64307 -3.67076,3.67122 v 2.93715 h -5.13957 v -4.96507 l 1.46789,-0.7313 1.46927,-0.73177 v -4.41746 l 5.87294,-2.9259 5.87363,2.9259 v 4.41746 l 1.46927,0.73177 1.46812,0.7313 z"
       id="path5923"
       style="stroke-width:0.229897; fill:#ffffff" />
  </g>
</svg>
