<?xml version="1.0" encoding="UTF-8" standalone="no"?>
<!-- Created with Inkscape (http://www.inkscape.org/) -->

<svg
   version="1.1"
   id="svg5550"
   width="21.436291"
   height="41.837181"
   xmlns:inkscape="http://www.inkscape.org/namespaces/inkscape"
   xmlns:sodipodi="http://sodipodi.sourceforge.net/DTD/sodipodi-0.dtd"
   xmlns="http://www.w3.org/2000/svg"
   xmlns:svg="http://www.w3.org/2000/svg">
  <defs
     id="defs5554" />
  <g
     id="g5556"
     transform="translate(-509.44544,-145.06655)">
    <path
    fill="#ffffff"
    fill-opacity="1"
    fill-rule="evenodd"
    stroke="none"
    marker="none"
    visibility="visible"
    display="inline"
    overflow="visible"
       id="path5260"
       d="m 511.35821,145.06655 c -0.49465,0 -0.89563,0.40099 -0.89563,0.89564 v 8.0113 c 0,3.41148 1.82471,6.57411 4.724,8.31866 0.038,0.0265 0.0783,0.0497 0.12035,0.07 0.25762,0.15005 0.52261,0.29 0.79606,0.41707 0.42146,0.19626 0.85268,0.3601 1.29158,0.49236 v 2.5589 c -4.57218,1.22377 -7.94913,5.40207 -7.94913,10.35494 0,5.91008 4.80798,10.71831 10.71797,10.71831 5.91,0 10.71832,-4.80823 10.71832,-10.71831 0,-4.95287 -3.37722,-9.13126 -7.94914,-10.35494 v -2.55674 c 4.00417,-1.19509 6.93199,-4.91171 6.93199,-9.30023 v -8.0113 c 0,-0.49465 -0.4009,-0.89564 -0.89546,-0.89564 h -4.38905 -10e-4 -8.95863 -0.004 z m 0.89563,1.79127 h 2.47478 l 0.0634,12.90585 c -1.58803,-1.47773 -2.53812,-3.56945 -2.53812,-5.79034 z m 4.26605,0 h 7.16172 l -0.0226,14.2119 c -1.05475,0.52197 -2.24144,0.81601 -3.49559,0.81601 -1.15185,0 -2.26353,-0.24578 -3.30526,-0.7309 -0.0906,-0.0422 -0.18011,-0.0859 -0.26862,-0.13115 z m 8.95298,0 h 2.60046 v 7.11551 c 0,2.33068 -1.01287,4.42897 -2.62107,5.87828 z m -6.28704,16.81917 h 1.9555 v 1.81038 l -1.9555,-0.0412 z m 0.97027,3.58119 0.36587,0.008 c 4.75686,0.18885 8.56833,4.11717 8.56833,8.9194 0,4.92248 -4.00457,8.92721 -8.92689,8.92721 -4.92231,0 -8.92671,-4.00456 -8.92671,-8.92705 0,-4.9201 4.00049,-8.92321 8.9194,-8.92721 z m 0.007,2.15846 c -0.32571,0 -0.62597,0.17683 -0.78376,0.46195 l -1.65562,2.99208 -3.35812,0.64811 c -0.32008,0.0619 -0.58133,0.29261 -0.68219,0.60258 -0.10068,0.31013 -0.0249,0.65027 0.19765,0.88831 l 2.33714,2.50039 -0.42121,3.3932 c -0.0402,0.32341 0.0987,0.64321 0.36237,0.83478 0.15575,0.1132 0.34056,0.17122 0.5266,0.17122 0.12895,0 0.25849,-0.0277 0.37934,-0.0843 l 3.09764,-1.44866 3.09763,1.44884 c 0.29516,0.13813 0.64227,0.10463 0.90594,-0.087 0.26375,-0.19158 0.40255,-0.51129 0.36238,-0.83479 L 524.108,177.51 l 2.33499,-2.50055 c 0.22239,-0.23831 0.29791,-0.57819 0.19714,-0.88815 -0.10085,-0.31005 -0.36193,-0.5407 -0.68203,-0.60241 l -3.35745,-0.64828 -1.65362,-2.99176 c -0.15754,-0.28519 -0.45771,-0.46227 -0.78359,-0.46227 z m -6.6e-4,2.7464 1.07282,1.94103 c 0.12852,0.23234 0.35336,0.39585 0.61421,0.44615 l 2.17874,0.42055 -1.51532,1.62288 c -0.18103,0.19388 -0.26673,0.45802 -0.23405,0.72142 l 0.27294,2.20102 -2.00918,-0.93969 c -0.12026,-0.0563 -0.24988,-0.0844 -0.3795,-0.0844 -0.12945,0 -0.25907,0.0282 -0.37933,0.0844 l -2.00952,0.93969 0.27312,-2.20085 c 0.0327,-0.26358 -0.0531,-0.52788 -0.23438,-0.72175 l -1.51683,-1.62272 2.17807,-0.42038 c 0.26052,-0.0504 0.48537,-0.21365 0.61388,-0.44582 z"
       style="stroke-width:0.0851078" />
  </g>
</svg>
