<?xml version="1.0" encoding="UTF-8" standalone="no"?>
<!-- Created with Inkscape (http://www.inkscape.org/) -->

<svg
   version="1.1"
   id="svg5826"
   width="58.000191"
   height="45.977264"
   xmlns:inkscape="http://www.inkscape.org/namespaces/inkscape"
   xmlns:sodipodi="http://sodipodi.sourceforge.net/DTD/sodipodi-0.dtd"
   xmlns="http://www.w3.org/2000/svg"
   xmlns:svg="http://www.w3.org/2000/svg">
  <defs
     id="defs5830" />
  
  <g
     id="g5832"
     transform="matrix(3.7795276,0,0,3.7795276,-270.24279,-862.65363)">
    <path
    fill="#ffffff"
         fill-opacity="1"
         fill-rule="evenodd"
         stroke="none"
         marker="none"
         visibility="visible"
         display="inline"
         overflow="visible"
       id="path5571"
       style="stroke-width:0.264583"
       d="m 76.200723,228.24377 a 0.26458333,0.26458333 0 0 0 -0.1881,0.0785 2.1166666,2.1166666 0 0 0 -0.163814,2.80965 v 0.016 H 71.76637 a 0.26458333,0.26458333 0 0 0 -0.264583,0.26458 2.1166666,2.1166666 0 0 0 1.870686,2.11667 1.5875,1.5875 0 0 0 1.322917,1.32292 1.8203333,1.8203333 0 0 0 0.529166,1.05833 1.7250833,1.7250833 0 0 0 0.227378,0.19327 l -3.807521,3.77548 a 0.31485416,0.31485416 0 0 0 -0.02377,0.0398 0.26458333,0.26458333 0 0 0 -0.118856,0.22479 0.26458333,0.26458333 0 0 0 0.264583,0.26459 h 4.497917 a 0.26458333,0.26458333 0 0 0 0.264583,-0.18811 l 0.510564,-1.70377 a 1.0583333,1.0583333 0 0 1 1.002522,-0.75396 h 2.082559 a 2.7437291,2.7437291 0 0 0 1.833481,-0.70383 0.23283333,0.23283333 0 0 0 0,0.0424 v 0.26458 a 0.26458333,0.26458333 0 0 0 0.264583,0.26458 1.3229166,1.3229166 0 0 0 1.246436,-0.8971 2.57175,2.57175 0 0 0 0.417544,0.55552 2.6061458,2.6061458 0 0 0 0.204124,0.18035 1.3229166,1.3229166 0 0 0 -0.814938,1.21957 v 0.26458 a 0.26458333,0.26458333 0 0 0 0.264583,0.26458 1.3229166,1.3229166 0 0 0 1.322917,-1.32291 2.5638125,2.5638125 0 0 0 0.79375,0.13229 h 0.926042 a 0.264585,0.264585 0 0 0 0,-0.52917 H 85.66733 a 1.9976041,1.9976041 0 0 1 -1.99471,-1.99523 v -0.12144 a 1.3229166,1.3229166 0 0 0 1.058333,0.52917 h 0.264584 a 0.26458333,0.26458333 0 0 0 0.264583,-0.26458 1.3229166,1.3229166 0 0 0 -1.322917,-1.32292 h -0.06873 a 2.8575,2.8575 0 0 1 0.653191,-1.00304 3.4210625,3.4210625 0 0 0 1.00304,-2.43654 0.26458333,0.26458333 0 0 0 -0.264583,-0.26459 0.26458333,0.26458333 0 0 0 -0.264583,0.26459 2.873375,2.873375 0 0 1 -0.79375,1.98695 v -0.38085 a 2.1378333,2.1378333 0 0 0 -2.365748,-2.11667 2.2357291,2.2357291 0 0 0 -1.322917,0.66146 l -0.706416,0.709 -0.04186,-0.0475 -3.376539,-3.37344 a 0.26458333,0.26458333 0 0 0 -0.187587,-0.0785 z m 0.01602,0.65526 h 0.0026 l 3.175,3.175 c 0.01588,0.0132 0.02908,0.0291 0.04496,0.045 l -0.264584,0.26458 a 3.4395833,3.4395833 0 0 0 -2.645833,-1.23558 h -0.06356 v -0.016 a 0.26458333,0.26458333 0 0 0 -0.077,-0.19069 1.5875,1.5875 0 0 1 -0.171566,-2.04225 z m 5.919017,1.97662 a 1.6086666,1.6086666 0 0 1 1.536859,1.59526 v 0.52916 h -0.529167 a 0.79374999,0.79374999 0 0 0 -0.79375,0.79375 v 1.2144 a 2.2277916,2.2277916 0 0 1 -2.225188,2.22519 h -2.082559 a 1.5875,1.5875 0 0 0 -1.513086,1.12964 l -0.460438,1.51619 h -0.753957 l 0.343646,-0.34158 a 0.2656659,0.2656659 0 0 0 -0.375687,-0.37569 l -0.714169,0.71727 h -0.576707 l 0.60823,-0.60617 A 0.26566675,0.26566675 0 0 0 74.2241,238.89739 l -0.926042,0.92604 a 0.24341666,0.24341666 0 0 0 -0.0341,0.0558 h -0.859896 l 3.537252,-3.53467 a 1.8838333,1.8838333 0 0 0 0.58756,0.0951 h 0.79375 a 0.264585,0.264585 0 0 0 0,-0.52917 h -0.79375 a 1.3229166,1.3229166 0 0 1 -1.296561,-1.05833 h 1.296561 a 0.264585,0.264585 0 0 0 0,-0.52917 h -1.5875 a 1.0583333,1.0583333 0 0 1 -0.748792,-0.30696 1.0900833,1.0900833 0 0 1 -0.264583,-0.48679 h 1.807125 a 0.264585,0.264585 0 0 0 0,-0.52917 h -2.116667 a 1.5875,1.5875 0 0 1 -1.566312,-1.32291 h 4.476729 a 2.9104166,2.9104166 0 0 1 2.38125,1.24902 2.8786666,2.8786666 0 0 1 0.529167,1.66139 0.26458349,0.26458349 0 0 0 0.529166,0 3.4078333,3.4078333 0 0 0 -0.495062,-1.7756 l 0.502815,-0.50229 0.904853,-0.89711 a 1.7250833,1.7250833 0 0 1 1.010791,-0.52916 1.6086666,1.6086666 0 0 1 0.243911,-0.008 z m 0.478526,0.80151 a 0.26458332,0.26458332 0 0 0 -0.264584,0.26458 0.26458332,0.26458332 0 0 0 0.264584,0.26458 0.26458332,0.26458332 0 0 0 0.264583,-0.26458 0.26458332,0.26458332 0 0 0 -0.264583,-0.26458 z m 0.529166,1.85208 h 0.529167 a 3.3946041,3.3946041 0 0 0 -0.529167,1.85208 v 0.13488 a 2.50825,2.50825 0 0 0 0.0186,0.28577 1.3229166,1.3229166 0 0 0 -0.434081,0.10852 2.7648958,2.7648958 0 0 0 0.150895,-0.90227 v -1.2144 a 0.26458333,0.26458333 0 0 1 0.264583,-0.26458 z m 0.838708,1.32292 a 0.79374999,0.79374999 0 0 1 0.703834,0.52916 0.79374999,0.79374999 0 0 1 -0.703834,-0.52916 z m -0.970999,1.50016 a 0.79374999,0.79374999 0 0 1 -0.529167,0.70383 0.79374999,0.79374999 0 0 1 0.529167,-0.70383 z m 1.322916,1.5875 a 0.79374999,0.79374999 0 0 1 -0.529166,0.70383 0.79374999,0.79374999 0 0 1 0.529166,-0.70383 z" />
  </g>
</svg>
