<?xml version="1.0" encoding="UTF-8" standalone="no"?>
<!-- Created with Inkscape (http://www.inkscape.org/) -->

<svg
  version="1.1"
  id="svg9371"
  width="40.93359"
  height="53.388683"
  xmlns:inkscape="http://www.inkscape.org/namespaces/inkscape"
  xmlns:sodipodi="http://sodipodi.sourceforge.net/DTD/sodipodi-0.dtd"
  xmlns="http://www.w3.org/2000/svg"
  xmlns:svg="http://www.w3.org/2000/svg">
  <defs
    id="defs9375"/>
  <g
    id="g9377"
    transform="matrix(6.9030255,0,0,6.9030255,-127.85426,-133.60095)">
    <path
      id="path4808"
      style="stroke-width:0.889841"
      d="m 183.76953,170.79102 a 6.2208683,6.2208683 0 0 0 -6.21484,6.21289 v 37.37304 a 6.2359955,6.2359955 0 0 0 6.23047,6.22852 h 4.44922 v 2.68555 a 0.88983954,0.88983954 0 0 0 1.51757,0.6289 l 2.93164,-2.92969 2.92969,2.92969 a 0.88983954,0.88983954 0 0 0 0.62891,0.25977 0.87827166,0.87827166 0 0 0 0.33984,-0.0664 0.88983954,0.88983954 0 0 0 0.55078,-0.82226 v -2.68555 h 20.46485 a 0.88983954,0.88983954 0 0 0 0.6289,-1.51758 6.6613388,6.6613388 0 0 1 0,-9.41992 0.88983954,0.88983954 0 0 0 0.25391,-0.63086 h 0.008 V 171.6797 a 0.88983954,0.88983954 0 0 0 -0.89062,-0.88867 z m 0,1.77929 h 0.9043 v 33.8125 h 1.77929 v -33.8125 h 25.4375 l 4.81836,4.81641 v 25.95898 l -4.80664,4.80469 h -28.11718 a 6.2084105,6.2084105 0 0 0 -4.44922,1.87891 v -33.02344 a 4.4385196,4.4385196 0 0 1 4.43359,-4.43555 z m 30.63867,0 h 2.30078 v 2.30078 z m -14.60742,2.66992 a 0.88983954,0.88983954 0 0 0 -0.88867,0.88868 v 3.56054 h -6.22852 a 0.88983954,0.88983954 0 0 0 -0.89062,0.88867 v 3.56055 a 0.88983954,0.88983954 0 0 0 0.89062,0.88867 h 6.22852 v 12.45704 a 0.88983954,0.88983954 0 0 0 0.88867,0.89062 h 3.56055 a 0.88983954,0.88983954 0 0 0 0.88867,-0.89062 v -12.45704 h 6.23047 a 0.88983954,0.88983954 0 0 0 0.88867,-0.88867 v -3.56055 a 0.88983954,0.88983954 0 0 0 -0.88867,-0.88867 H 204.25 v -3.56054 a 0.88983954,0.88983954 0 0 0 -0.88867,-0.88868 z m 0.89063,1.7793 h 1.77929 v 3.55859 a 0.88983954,0.88983954 0 0 0 0.89063,0.89063 h 6.22851 v 1.7793 h -6.22851 a 0.88983954,0.88983954 0 0 0 -0.89063,0.89062 v 12.45703 h -1.77929 v -12.45703 a 0.88983954,0.88983954 0 0 0 -0.89063,-0.89062 h -6.22851 v -1.7793 h 6.22851 a 0.88983954,0.88983954 0 0 0 0.89063,-0.89063 z m 16.01757,28.8418 v 2.28711 l -2.2871,0.002 z m -32.92382,4.0664 h 31.97656 a 8.4597047,8.4597047 0 0 0 0,8.89844 v 0.002 H 197.13281 V 213.502 h 10.67774 v -1.77929 h -18.6875 a 0.88983954,0.88983954 0 0 0 -0.88867,0.89062 v 6.21289 h -4.44922 a 4.44922,4.44922 0 0 1 0,-8.89844 z m 6.22851,3.57422 h 5.33789 v 7.64063 l -2.03906,-2.04102 a 0.88983954,0.88983954 0 0 0 -1.25977,0 l -2.03906,2.04102 z m 8.89844,1.7793 v 1.78125 h 13.34766 v -1.78125 z"
      transform="matrix(0.14486402,0,0,0.14486402,-7.1998048,-5.3875041)" 
      fill="#ffffff"
      fill-opacity="1"
      fill-rule="evenodd"
      stroke="none"
      marker="none"
      visibility="visible"
      display="inline"
      overflow="visible"/>
  </g>
</svg>
