<?xml version="1.0" encoding="UTF-8" standalone="no"?>
<!-- Created with Inkscape (http://www.inkscape.org/) -->

<svg
   version="1.1"
   id="svg9310"
   width="47.458981"
   height="35.55468"
   xmlns:inkscape="http://www.inkscape.org/namespaces/inkscape"
   xmlns:sodipodi="http://sodipodi.sourceforge.net/DTD/sodipodi-0.dtd"
   xmlns="http://www.w3.org/2000/svg"
   xmlns:svg="http://www.w3.org/2000/svg">
  <defs
     id="defs9314" />
  <g
     id="g9316"
     transform="matrix(6.9030255,0,0,6.9030255,-49.998785,-137.35681)">
    <path
      fill="#ffffff"
      fill-opacity="1"
      fill-rule="evenodd"
      stroke="none"
      marker="none"
      visibility="visible"
      display="inline"
      overflow="visible"
      id="path4113"
      style="stroke-width:1.97745"
      d="m 123.42773,174.54688 c -0.34756,0 -0.69512,0.16014 -0.86914,0.47851 -1.58591,2.91673 -3.2244,5.26168 -4.66992,7.33008 -2.49553,3.57325 -4.46679,6.39526 -4.46679,9.83008 -0.002,5.51707 4.48878,10.00586 10.00585,10.00586 5.51707,0 10.00782,-4.48879 10.00782,-10.00586 0,-3.43482 -1.96931,-6.25683 -4.46485,-9.83008 -1.44551,-2.0684 -3.08989,-4.41335 -4.67382,-7.33008 -0.17403,-0.31837 -0.52161,-0.47851 -0.86915,-0.47851 z m 0,2.95703 c 1.35455,2.31163 2.70187,4.24227 3.91602,5.98242 2.38678,3.41702 4.11328,5.88729 4.11328,8.69922 0.002,4.42948 -3.6018,8.02929 -8.0293,8.02929 -4.4275,0 -8.02929,-3.59981 -8.02929,-8.02929 0,-2.81193 1.7265,-5.2822 4.11328,-8.69922 1.21415,-1.74015 2.56344,-3.67079 3.91601,-5.98242 z m -12.88476,16.18554 c -0.0658,0.003 -0.13199,0.0115 -0.19922,0.0274 -6.76484,1.6176 -10.644531,4.34416 -10.644531,7.48632 0,5.78007 12.225711,8.89844 23.728511,8.89844 11.5028,0 23.73047,-3.11837 23.73047,-8.89844 0,-3.14216 -3.88162,-5.87075 -10.64843,-7.48632 -0.53589,-0.12854 -1.0629,0.2044 -1.18946,0.73437 -0.12653,0.53195 0.19855,1.06092 0.72852,1.18945 5.54673,1.32291 9.13086,3.50794 9.13086,5.5625 0,3.27267 -8.93416,6.91993 -21.75196,6.91993 -12.8178,0 -21.75195,-3.64726 -21.75195,-6.91993 0,-2.05456 3.5822,-4.2376 9.12695,-5.5625 0.53194,-0.12653 0.86291,-0.66145 0.73438,-1.19335 -0.0949,-0.39748 -0.41944,-0.68062 -0.80078,-0.74415 -0.0635,-0.0107 -0.12757,-0.0162 -0.19336,-0.0137 z m 2.01172,3.51172 c -0.065,-1.3e-4 -0.12957,0.006 -0.19531,0.0195 -4.52835,0.90765 -6.72852,2.21063 -6.72852,3.98242 0,3.90348 11.18627,4.94336 17.79687,4.94336 6.6106,0 17.79688,-1.03988 17.79688,-4.94336 0,-1.77179 -2.19823,-3.07477 -6.72461,-3.98242 -0.52995,-0.11072 -1.05726,0.23948 -1.16602,0.77735 -0.10879,0.53788 0.24148,1.05334 0.77735,1.16211 4.09529,0.82063 5.09711,1.82356 5.14062,2.03515 -0.18983,1.01048 -5.9449,2.97461 -15.82422,2.97461 -9.87932,0 -15.63245,-1.96037 -15.82031,-2.95898 0.0415,-0.22345 1.04335,-1.23015 5.14063,-2.05078 0.53588,-0.1088 0.88022,-0.62424 0.77343,-1.16211 -0.0934,-0.47065 -0.51156,-0.79593 -0.96679,-0.79688 z"
      transform="matrix(0.14486402,0,0,0.14486402,-7.1998048,-5.3875041)" />
  </g>
</svg>
