<?xml version="1.0" encoding="UTF-8" standalone="no"?>
<!-- Created with Inkscape (http://www.inkscape.org/) -->

<svg
   version="1.1"
   id="svg531"
   width="16.820663"
   height="15.871292"
   xmlns:inkscape="http://www.inkscape.org/namespaces/inkscape"
   xmlns:sodipodi="http://sodipodi.sourceforge.net/DTD/sodipodi-0.dtd"
   xmlns="http://www.w3.org/2000/svg"
   xmlns:svg="http://www.w3.org/2000/svg">
  <defs
     id="defs535" />
  <g
     id="g537"
     transform="matrix(3.7795276,0,0,3.7795276,-707.48062,-481.64664)">
    <g
       id="g39"
       transform="matrix(0.26458333,0,0,0.26458333,164.77979,123.67411)"
       style="fill:#ffffff">
      <g
         id="g22"
         transform="matrix(0.60067823,0,0,0.60067823,83.492959,12.543673)"
         style="fill:#ffffff">
        <path
          fill="#ffffff"
          fill-opacity="1"
          fill-rule="evenodd"
          stroke="none"
          marker="none"
          visibility="visible"
          display="inline"
          overflow="visible"
          d="m 29.95,4.74 -5.1,21.02 c -0.24,0.99 -1.35,1.5 -2.26,1.03 l -6.45,-3.33 -3.05,4.99 c -0.83,1.36 -2.93,0.77 -2.93,-0.82 v -5.56 c 0,-0.43 0.18,-0.84 0.49,-1.14 l 12.57,-12 C 23.21,8.78 23.05,8.65 22.89,8.76 L 7.89,19.2 2.85,16.6 C 1.67,15.99 1.72,14.28 2.94,13.75 L 27.79,2.92 c 1.19,-0.52 2.47,0.55 2.16,1.82 z"
          id="path20"
          style="fill:#ffffff" />
      </g>
    </g>
  </g>
</svg>
