<?xml version="1.0" encoding="UTF-8" standalone="no"?>
<!-- Created with Inkscape (http://www.inkscape.org/) -->

<svg
   version="1.1"
   id="svg494"
   width="15.927651"
   height="16.000031"
   xmlns:inkscape="http://www.inkscape.org/namespaces/inkscape"
   xmlns:sodipodi="http://sodipodi.sourceforge.net/DTD/sodipodi-0.dtd"
   xmlns="http://www.w3.org/2000/svg"
   xmlns:svg="http://www.w3.org/2000/svg">
  <defs
     id="defs498" />
  <g
     id="g500"
     transform="matrix(3.7795276,0,0,3.7795276,-750.24904,-487.03166)">
    <path
      fill="#ffffff"
      fill-opacity="1"
      fill-rule="evenodd"
      stroke="none"
      marker="none"
      visibility="visible"
      display="inline"
      overflow="visible"
      id="path9"
      style="fill:#ffffff;stroke-width:0.264583"
      d="m 200.61851,128.86047 c -1.15544,0 -2.09701,0.94132 -2.09807,2.09702 0,0.37016 0.0967,0.7302 0.27958,1.04904 l -0.29663,1.08727 1.11208,-0.29146 a 2.0989396,2.0989396 0 0 0 1.00304,0.25528 h 0.001 c 1.1557,0 2.09701,-0.94183 2.09807,-2.09857 a 2.0896792,2.0896792 0 0 0 -0.61547,-1.48312 h -5.2e-4 a 2.0780375,2.0780375 0 0 0 -1.48311,-0.61546 z m 0.001,0.35398 a 1.7356667,1.7356667 0 0 1 1.233,0.51056 1.7348729,1.7348729 0 0 1 0.51005,1.233 c -0.001,0.96282 -0.78338,1.74408 -1.74408,1.74408 a 1.7391062,1.7391062 0 0 1 -0.88832,-0.2434 l -0.063,-0.0377 -0.65991,0.17312 0.17621,-0.64389 -0.0413,-0.0667 a 1.7356667,1.7356667 0 0 1 -0.26665,-0.92708 c 0,-0.95938 0.78258,-1.74201 1.74408,-1.74201 z m -0.74311,0.77411 a 0.19288125,0.19288125 0 0 0 -0.14004,0.0656 c -0.0482,0.0524 -0.18293,0.1792 -0.18293,0.4377 0,0.2585 0.188,0.5069 0.21445,0.54209 0.0259,0.0352 0.36878,0.56414 0.89504,0.79168 0.12435,0.0542 0.22223,0.0863 0.29869,0.11059 0.12568,0.0402 0.23921,0.0341 0.3297,0.0212 0.10053,-0.0153 0.30979,-0.12709 0.35398,-0.2496 0.0434,-0.12275 0.0432,-0.22763 0.03,-0.24959 -0.013,-0.0222 -0.0478,-0.0353 -0.10025,-0.0615 -0.0521,-0.0262 -0.3097,-0.15254 -0.35812,-0.17053 -0.0482,-0.0172 -0.0834,-0.0266 -0.11782,0.0258 -0.0352,0.0521 -0.13571,0.17102 -0.16588,0.20516 -0.0302,0.0352 -0.0613,0.0394 -0.11369,0.0134 -0.0521,-0.0265 -0.22114,-0.0819 -0.42116,-0.26097 -0.15611,-0.1389 -0.26076,-0.31064 -0.29197,-0.36276 -0.0302,-0.0524 -0.003,-0.0807 0.0232,-0.10697 0.023,-0.0233 0.0523,-0.0613 0.0786,-0.0915 0.0265,-0.0302 0.035,-0.0524 0.0522,-0.0873 0.0172,-0.0354 0.009,-0.0653 -0.004,-0.0915 -0.0132,-0.0262 -0.11756,-0.28488 -0.16175,-0.38913 -0.0423,-0.10292 -0.0856,-0.0886 -0.11782,-0.0899 -0.0302,-0.002 -0.0651,-0.002 -0.10026,-0.002 z" />
  </g>
</svg>
