<svg width="49" height="49" viewBox="0 0 49 49" fill="#986BB2" xmlns="http://www.w3.org/2000/svg">
<path d="M24.493 49C10.9922 49 0 38.0078 0 24.493C0 10.9781 10.9922 0 24.493 0C37.9937 0 48.9859 10.9922 48.9859 24.493C48.9859 37.9937 38.0078 49 24.493 49ZM24.493 3.94593C13.1625 3.94593 3.94593 13.1625 3.94593 24.493C3.94593 35.8234 13.1625 45.04 24.493 45.04C35.8234 45.04 45.04 35.8234 45.04 24.493C45.04 13.1625 35.8234 3.94593 24.493 3.94593Z" fill="#986BB2"/>
<path d="M30.1581 25.3808H26.1417V40.1076H20.0537V25.3808H17.1506V20.2088H20.0537V16.8548C20.0537 14.459 21.1952 10.7104 26.1981 10.7104L30.7077 10.7245V15.7414H27.4382C26.9027 15.7414 26.1417 16.0092 26.1417 17.1507V20.1947H30.6936L30.1581 25.3808Z" fill="#986BB2"/>
</svg>
