<svg width="49" height="49" viewBox="0 0 49 49" fill="#313A3C" xmlns="http://www.w3.org/2000/svg">
<path d="M48.8738 14.4145C48.7634 11.8124 48.3376 10.0145 47.7383 8.46894C47.1233 6.82877 46.1613 5.34631 44.8996 4.11619C43.6695 2.87029 42.187 1.90827 40.5626 1.29321C39.0013 0.693917 37.2192 0.268104 34.617 0.157708C31.999 0.0315417 31.1632 0 24.5079 0C17.8526 0 17.0167 0.0315417 14.4145 0.141938C11.7966 0.252333 10.0145 0.678146 8.46894 1.27744C6.82877 1.8925 5.34631 2.85452 4.11619 4.11619C2.87029 5.34631 1.90827 6.82877 1.29321 8.45317C0.693917 10.0145 0.268104 11.7966 0.157708 14.3988C0.0315417 17.0167 0 17.8526 0 24.5079C0 31.1632 0.0315417 31.999 0.141938 34.6012C0.252333 37.2034 0.678146 39.0013 1.27744 40.5468C1.8925 42.187 2.87029 43.6695 4.11619 44.8996C5.34631 46.1455 6.82877 47.1075 8.45317 47.7226C10.0145 48.3219 11.7966 48.7477 14.3988 48.8581C17.0167 48.9685 17.8526 49 24.4921 49C31.1316 49 31.9833 48.9685 34.5855 48.8581C37.1876 48.7477 38.9855 48.3219 40.5311 47.7226C43.8272 46.4451 46.4294 43.8429 47.7068 40.5468C48.3061 38.9855 48.7319 37.2034 48.8423 34.6012C48.9527 31.9833 48.9842 31.1474 48.9842 24.5079C48.9842 17.8684 48.9842 17.0167 48.8738 14.4145ZM44.458 34.412C44.3476 36.8091 43.9533 38.1023 43.6221 38.954C42.8021 41.083 41.0988 42.7863 38.9697 43.6064C38.1024 43.9376 36.8091 44.3476 34.4277 44.4422C31.8413 44.5526 31.0686 44.5842 24.5237 44.5842C17.9788 44.5842 17.206 44.5526 14.6196 44.4422C12.2224 44.3318 10.9292 43.9376 10.0776 43.6064C9.02092 43.2121 8.04313 42.597 7.27036 41.777C6.45027 40.9884 5.83521 40.0264 5.44094 38.9697C5.10975 38.1023 4.69971 36.8091 4.60509 34.4277C4.49469 31.8413 4.46315 31.0686 4.46315 24.5237C4.46315 17.9788 4.49469 17.206 4.60509 14.6196C4.71548 12.2224 5.10975 10.9292 5.44094 10.0776C5.83521 9.02092 6.45027 8.04313 7.28613 7.27036C8.07467 6.45027 9.03669 5.83521 10.0933 5.44094C10.9607 5.10975 12.2539 4.69971 14.6353 4.60509C17.2218 4.49469 17.9945 4.46315 24.5394 4.46315C31.0843 4.46315 31.8571 4.49469 34.4435 4.60509C36.8407 4.71548 38.1339 5.10975 38.9855 5.44094C40.0422 5.83521 41.02 6.45027 41.7927 7.27036C42.6128 8.0589 43.2279 9.02092 43.6221 10.0776C43.9533 10.945 44.3634 12.2382 44.458 14.6196C44.5684 17.206 44.5999 17.9788 44.5999 24.5237C44.5999 31.0686 44.5684 31.8256 44.458 34.412Z" fill="#313A3C"/>
<path d="M24.5077 11.9228C17.5528 11.9228 11.9226 17.5687 11.9226 24.5079C11.9226 31.4471 17.5686 37.093 24.5077 37.093C31.4627 37.093 37.0929 31.4471 37.0929 24.5079C37.0929 17.5687 31.4627 11.9228 24.5077 11.9228ZM24.5077 32.6772C19.9973 32.6772 16.3384 29.0183 16.3384 24.5079C16.3384 19.9974 19.9973 16.3386 24.5077 16.3386C29.0182 16.3386 32.677 19.9974 32.677 24.5079C32.677 29.0183 29.0182 32.6772 24.5077 32.6772Z" fill="#313A3C"/>
<path d="M40.531 11.4181C40.531 13.0425 39.2221 14.3515 37.5977 14.3515C35.9733 14.3515 34.6643 13.0425 34.6643 11.4181C34.6643 9.79369 35.9733 8.48471 37.5977 8.48471C39.2221 8.48471 40.531 9.79369 40.531 11.4181Z" fill="#313A3C"/>
</svg>
