<svg width="194" height="44" viewBox="0 0 194 44" fill="none" xmlns="http://www.w3.org/2000/svg">
<g clip-path="url(#clip0)">
<path d="M7.57737 4.92386H4.95361V7.53193H7.57737V4.92386Z" fill="#313A3C"/>
<path d="M32.4577 30.2626C24.0209 29.9928 19.7913 25.1139 19.7913 15.6709C19.7913 6.2279 24.0662 1.50638 32.5708 1.43893C41.4373 1.43893 45.6217 6.83495 45.0789 17.7169H27.0292C27.3006 21.9663 29.1328 24.1247 32.5708 24.1247C34.1993 24.1247 35.7374 23.4502 37.1171 22.1237C37.7504 21.4492 38.5421 21.1344 39.4921 21.1344H44.6717C43.1111 27.0026 39.3111 30.2626 32.4577 30.2626ZM27.1197 12.7256H37.6374C37.2076 9.0608 35.466 7.1722 32.4577 7.1722C29.4494 7.1722 27.6625 9.03832 27.1197 12.7256Z" fill="#313A3C"/>
<path d="M46.866 15.7608C46.866 6.52017 51.1861 1.91108 59.8491 1.75369C68.5573 1.70873 72.9453 5.8007 72.9453 14.142V30.5774C72.9453 37.5473 67.5168 43.8426 60.1884 44C53.8551 44.1349 48.9695 40.4251 47.341 34.557L52.023 33.0731C52.498 35.0741 55.9587 38.3791 58.8539 38.3791C62.5407 38.3791 65.8656 35.0516 65.8656 30.7573C65.8656 30.7573 65.9787 28.9811 65.9787 26.0807C64.1919 28.8012 61.5002 30.1727 58.017 30.1727C50.5754 30.1502 46.866 25.3163 46.866 15.7608ZM65.9787 15.9857C66.024 10.3648 64.0788 7.59938 60.0753 7.59938C56.0718 7.59938 54.1039 10.3873 54.1039 15.9857C54.2623 21.3367 56.1622 24.0123 59.9622 24.0123C63.7621 24.0123 65.7752 21.3367 65.9787 15.9857Z" fill="#313A3C"/>
<path d="M86.7878 30.2626C78.351 29.9928 74.1213 25.1139 74.1213 15.6709C74.1213 6.2279 78.3963 1.50638 86.9009 1.43893C95.7674 1.43893 99.9518 6.83495 99.409 17.7169H81.3593C81.6307 21.9663 83.4628 24.1247 86.9009 24.1247C88.5294 24.1247 90.0675 23.4502 91.4472 22.1237C92.0805 21.4492 92.8722 21.1344 93.8222 21.1344H99.0018C97.4412 27.0026 93.6412 30.2626 86.7878 30.2626ZM81.4498 12.7256H91.9674C91.5377 9.0608 89.7961 7.1722 86.7878 7.1722C83.7795 7.14972 81.9926 9.03832 81.4498 12.7256Z" fill="#313A3C"/>
<path d="M139.014 30.2626C130.577 29.9928 126.348 25.1139 126.348 15.6709C126.348 6.2279 130.623 1.50638 139.127 1.43893C147.994 1.43893 152.178 6.83495 151.635 17.7169H133.586C133.857 21.9663 135.689 24.1247 139.127 24.1247C140.756 24.1247 142.294 23.4502 143.674 22.1237C144.307 21.4492 145.099 21.1344 146.049 21.1344H151.228C149.667 27.0026 145.868 30.2626 139.014 30.2626ZM133.676 12.7256H144.194C143.764 9.0608 142.022 7.1722 139.014 7.1722C136.006 7.14972 134.196 9.03832 133.676 12.7256Z" fill="#313A3C"/>
<path d="M181.334 30.7348C172.897 30.465 168.667 25.5861 168.667 16.1431C168.667 6.70007 172.942 1.97855 181.447 1.9111C190.313 1.9111 194.498 7.30712 193.955 18.1891H175.905C176.177 22.4384 178.009 24.5968 181.447 24.5968C183.075 24.5968 184.613 23.9223 185.993 22.5958C186.626 21.9213 187.418 21.6066 188.368 21.6066H193.548C192.01 27.4747 188.21 30.7348 181.334 30.7348ZM175.996 13.1978H186.513C186.084 9.53297 184.342 7.64437 181.334 7.64437C178.325 7.64437 176.539 9.53297 175.996 13.1978Z" fill="#313A3C"/>
<path d="M153.083 15.2887C153.286 6.31782 158.104 1.84363 167.446 1.84363H168.441V9.08328H166.066C162.153 9.08328 160.208 11.1293 160.208 15.1763V29.6106H153.083V15.2887Z" fill="#313A3C"/>
<path d="M121.1 29.6331C118.77 29.4757 117.617 28.374 117.617 26.1707V11.8937C117.459 9.01584 115.875 7.59939 112.754 7.59939C109.633 7.59939 108.049 9.01584 108.004 11.8937V29.6331H100.879V13.3102C100.879 5.39601 104.883 1.43893 112.867 1.43893C120.851 1.43893 124.742 5.37353 124.697 13.3102V29.6331H121.1Z" fill="#313A3C"/>
<path d="M2.62376 4.92386H0V7.53193H2.62376V4.92386Z" fill="#313A3C"/>
<path d="M7.57737 0H4.95361V2.60807H7.57737V0Z" fill="#313A3C"/>
<path d="M17.4388 1.95605C14.1138 1.95605 12.8246 2.04599 10.2008 3.05774L9.95199 10.14H4.02591C3.21164 11.9836 3.14378 12.838 3.07593 15.4011V29.723H10.2008V15.2887C10.2008 11.2417 12.146 9.19571 16.059 9.19571H18.434V1.95605H17.4388Z" fill="#313A3C"/>
</g>
<defs>
<clipPath id="clip0">
<rect width="194" height="44" fill="white"/>
</clipPath>
</defs>
</svg>
