<svg width="124" height="124" viewBox="0 0 124 124" fill="none" xmlns="http://www.w3.org/2000/svg">
<path d="M103.82 1.88377L105.699 8.89635L28.069 29.5803L29.9507 36.6028L15.9156 40.3637L17.796 47.3814L10.7784 49.2619L7.01767 35.2265L0 37.107L9.40186 72.1951L16.4195 70.3147L12.6588 56.2793L19.6765 54.3988L21.557 61.4165L35.5923 57.6558L37.4689 64.6592L52.9592 60.5759C53.9376 62.0246 55.255 63.2265 56.7964 64.0671L30.682 116.731H22.0377V123.996H35.1889L58.3635 77.2602V116.731H51.0984V123.996H72.8939V116.731H65.6287V77.2602L88.8034 123.996H101.955V116.731H93.3102L67.196 64.0671C70.3755 62.3334 72.5982 59.0614 72.8638 55.2583L115.101 43.9859L116.982 51.007L124 49.1265L110.837 0.00354004L103.82 1.88377ZM26.6939 52.5186L24.8135 45.5009L31.8311 43.6205L33.7116 50.6382L26.6939 52.5186ZM36.9698 34.7277L93.5388 19.6551L99.1819 40.7151L70.9257 48.2561C68.9535 45.4404 65.6873 43.5943 61.9964 43.5943C56.308 43.5943 51.6263 47.9762 51.1427 53.5413L42.6136 55.7896L36.9698 34.7277ZM61.9961 58.1249C59.9931 58.1249 58.3635 56.4953 58.3635 54.4923C58.3635 52.4893 59.9931 50.8597 61.9961 50.8597C63.9991 50.8597 65.6287 52.4893 65.6287 54.4923C65.6287 56.4953 63.9991 58.1249 61.9961 58.1249ZM106.201 38.8419L100.559 17.7848L107.579 15.9143L113.221 36.9685L106.201 38.8419Z" fill="#986BB2"/>
</svg>
