<svg width="40" height="34" viewBox="0 0 40 34" fill="none" xmlns="http://www.w3.org/2000/svg">
<g clip-path="url(#clip0)">
<path d="M0.575573 28.5673L16.9258 1.7666C17.575 0.713928 18.7507 0.0605469 19.9999 0.0605469C21.2492 0.0605469 22.4249 0.713928 23.074 1.7666L39.4243 28.5673C40.0857 29.6563 40.1102 31.0235 39.4733 32.1367C38.8364 33.2499 37.6484 33.9396 36.3502 33.9396H3.63742C2.35145 33.9396 1.1512 33.2499 0.514336 32.1367C-0.110279 31.0356 -0.0980339 29.6684 0.575573 28.5673ZM2.78011 30.8783C2.95157 31.1808 3.28225 31.3744 3.63742 31.3744H36.3625C36.7176 31.3744 37.0483 31.1808 37.2198 30.8783C37.3912 30.5758 37.3912 30.2008 37.2075 29.8983L20.845 3.09756C20.6736 2.80717 20.3429 2.62567 19.9999 2.62567C19.657 2.62567 19.3386 2.80717 19.1549 3.09756L2.79235 29.8983C2.60864 30.2008 2.60864 30.5758 2.78011 30.8783Z" fill="#FFFFFF" stroke="#FFFFFF" stroke-miterlimit="10"/>
<path d="M19.9878 10.6116C20.9799 10.6116 21.7515 11.1319 21.7515 12.0635C21.7515 14.8948 21.4085 18.9603 21.4085 21.7916C21.4085 22.5297 20.7594 22.8443 19.9878 22.8443C19.4122 22.8443 18.5916 22.5297 18.5916 21.7916C18.5916 18.9603 18.2487 14.8948 18.2487 12.0635C18.2487 11.1319 19.0448 10.6116 19.9878 10.6116Z" fill="#FFFFFF" stroke="#FFFFFF" stroke-miterlimit="10"/>
<path d="M19.9634 24.4897C21.0289 24.4897 21.8127 25.3246 21.8127 26.3168C21.8127 27.2969 21.0167 28.1438 19.9634 28.1438C18.9713 28.1438 18.1385 27.2848 18.1385 26.3168C18.1385 25.3246 18.9713 24.4897 19.9634 24.4897Z" fill="#FFFFFF" stroke="#FFFFFF" stroke-miterlimit="10"/>
</g>
<defs>
<clipPath id="clip0">
<rect width="40" height="34" fill="white" transform="matrix(-1 0 0 1 40 0)"/>
</clipPath>
</defs>
</svg>
