<svg width="62" height="47" viewBox="0 0 62 47" fill="#986BB2" xmlns="http://www.w3.org/2000/svg">
<path d="M40.5647 20.521L27.0375 13.1764C26.252 12.7554 25.3408 12.771 24.5709 13.2232C23.8011 13.6754 23.3455 14.4707 23.3455 15.3439V29.9082C23.3455 30.7814 23.8011 31.5767 24.5552 32.0289C24.948 32.2628 25.3879 32.3876 25.8278 32.3876C26.2363 32.3876 26.6291 32.294 27.0061 32.0913L40.5333 24.8715C41.3345 24.4349 41.8373 23.6085 41.8373 22.704C41.8687 21.7996 41.3659 20.9576 40.5647 20.521Z" fill="#986BB2"/>
<path d="M61.303 11.1025V11.0714C61.2559 10.588 60.7374 6.23739 58.6007 4.02312C56.1341 1.41902 53.3532 1.09156 52.0021 0.951215C51.8921 0.935622 51.7822 0.920028 51.7036 0.920028L51.5936 0.904435C43.5025 0.311884 31.2793 0.233917 31.1536 0.233917H31.1379H31.1222C30.9965 0.233917 18.7734 0.311884 10.6037 0.904435H10.5094C10.4152 0.920028 10.3209 0.920028 10.2266 0.935622C8.90691 1.09156 6.14178 1.40342 3.65944 4.10109C1.63273 6.28417 1.03571 10.5412 0.988577 11.0246V11.0869C0.972866 11.2897 0.532959 16.1392 0.532959 21.0044V25.5577C0.532959 30.4228 0.972866 35.2724 0.988577 35.4751V35.5063C1.03571 35.9897 1.55417 40.2623 3.67515 42.4765C5.98467 44.9871 8.92262 45.3301 10.4937 45.5017C10.7451 45.5328 10.9493 45.5484 11.1064 45.5796L11.2478 45.5952C15.914 46.0318 30.5723 46.2501 31.2008 46.2657H31.2165H31.2322C31.3579 46.2657 43.581 46.1878 51.6722 45.5952L51.7822 45.5796C51.8921 45.564 52.0021 45.5484 52.1278 45.5484C53.4475 45.4081 56.1969 45.1274 58.6321 42.4609C60.6588 40.2779 61.2559 36.0209 61.303 35.5375V35.4751C61.3187 35.2724 61.7586 30.4228 61.7586 25.5577V21.0044C61.7586 16.1392 61.3187 11.3053 61.303 11.1025ZM58.1608 25.5577C58.1608 30.0642 57.768 34.6954 57.7209 35.1164C57.5638 36.2859 56.9511 38.9836 55.9613 40.044C54.4373 41.7125 52.8662 41.8684 51.7193 41.9931C51.5779 42.0087 51.4522 42.0243 51.3422 42.0399C43.5182 42.6013 31.7507 42.6948 31.2165 42.6948C30.6038 42.6792 16.1654 42.4609 11.6406 42.0555C11.405 42.0243 11.1536 41.9931 10.8865 41.9619C9.55106 41.806 7.71287 41.6033 6.29889 40.0595L6.26746 40.0284C5.29338 39.0304 4.69637 36.5042 4.53926 35.1476C4.50783 34.8202 4.09935 30.1421 4.09935 25.5732V21.02C4.09935 16.5291 4.49212 11.8978 4.53926 11.4612C4.72779 10.0734 5.35623 7.54724 6.29889 6.53367C7.86998 4.81839 9.51963 4.63127 10.6194 4.50652C10.7294 4.49092 10.8236 4.49093 10.9179 4.47533C18.8677 3.91397 30.7137 3.82041 31.1379 3.82041C31.5621 3.82041 43.4082 3.91397 51.2794 4.47533C51.3737 4.49093 51.4836 4.50652 51.5936 4.50652C52.7248 4.63127 54.4216 4.83398 55.9927 6.48688L56.0084 6.50248C56.9825 7.50046 57.5795 10.0734 57.7366 11.4612C57.768 11.7575 58.1765 16.4667 58.1765 21.0356V25.5577H58.1608Z" fill="#986BB2"/>
<path d="M31.2166 46.484H31.1851C31.0437 46.484 15.9926 46.2657 11.2165 45.8135L11.0594 45.7979C10.918 45.7667 10.7137 45.7511 10.4781 45.72H10.4624C8.85984 45.5328 5.87476 45.2054 3.5024 42.6169C1.33429 40.3558 0.800114 36.0052 0.752981 35.5218V35.4907C0.705849 34.9761 0.297363 30.298 0.297363 25.5576V21.0044C0.297363 16.264 0.705849 11.5859 0.752981 11.0713V11.009C0.815825 10.5256 1.41284 6.19059 3.48669 3.94514C6.01616 1.1851 8.84413 0.873232 10.1953 0.717298H10.2424C10.321 0.701705 10.3995 0.701705 10.4781 0.686111L10.588 0.670518C18.7578 0.0779672 31.0123 0 31.1223 0H31.138C31.2637 0 43.5025 0.0779672 51.5937 0.670518L51.7037 0.686111C51.7979 0.701705 51.9079 0.717298 52.0022 0.717298C53.369 0.873232 56.2284 1.20069 58.7422 3.86717C60.926 6.12822 61.4445 10.5568 61.5073 11.0557V11.0869L61.2716 11.1025L61.5073 11.0869C61.5544 11.6015 61.9629 16.2795 61.9629 21.02V25.5732C61.9629 30.298 61.5544 34.9917 61.5073 35.5063V35.5686C61.4445 36.052 60.8475 40.3714 58.7736 42.6325C56.2756 45.3613 53.479 45.6576 52.1279 45.7979C52.0022 45.8135 51.8922 45.8291 51.7822 45.8291L51.6722 45.8447C43.5968 46.4061 31.3422 46.484 31.2166 46.484ZM31.138 0.467803C31.0123 0.467803 18.7892 0.54577 10.6352 1.13832L10.5409 1.15391C10.4781 1.16951 10.3995 1.16951 10.3053 1.1851H10.2581C8.95411 1.34104 6.25182 1.63731 3.84804 4.2726C1.85275 6.4089 1.28715 10.5879 1.22431 11.0557V11.1181C1.17718 11.6327 0.768692 16.2795 0.768692 21.0044V25.5576C0.768692 30.2669 1.17718 34.9293 1.22431 35.4439V35.4751C1.27144 35.9429 1.77419 40.1375 3.84804 42.305C6.11042 44.7532 8.98553 45.0806 10.5252 45.2677C10.7923 45.2989 10.9965 45.3145 11.1536 45.3457L11.2793 45.3613C16.0083 45.8135 31.0437 46.0318 31.2008 46.0318H31.2166C31.3422 46.0318 43.5654 45.9538 51.6408 45.3613L51.7351 45.3457C51.8293 45.3301 51.955 45.3145 52.0807 45.3145C53.369 45.1742 56.0556 44.8935 58.428 42.305C60.4075 40.1687 60.9888 35.9741 61.0517 35.5063V35.4439C61.0988 34.9293 61.5073 30.2669 61.5073 25.5576V21.0044C61.5073 16.2951 61.0988 11.6327 61.0517 11.1181V11.0869C61.0046 10.6035 60.4861 6.33093 58.4123 4.17904C56.0242 1.63731 53.2905 1.32544 51.9865 1.1851C51.8765 1.16951 51.7665 1.15391 51.6722 1.15391L51.578 1.13832C43.5025 0.54577 31.2794 0.467803 31.138 0.467803ZM31.2323 42.9287C31.0752 42.9287 16.244 42.7104 11.625 42.2894H11.6093C11.3893 42.2582 11.1379 42.227 10.8708 42.1958C9.48828 42.0399 7.60297 41.8216 6.14185 40.2155L6.11042 40.1843C5.08921 39.1395 4.49219 36.6134 4.31937 35.1632C4.30366 34.9605 3.87946 30.1733 3.87946 25.5576V21.0044C3.87946 16.4043 4.30366 11.6171 4.31937 11.4144C4.5079 9.94861 5.15205 7.40688 6.14185 6.34653C7.77579 4.56888 9.48828 4.36616 10.6195 4.24141H10.6352C10.7294 4.22582 10.8237 4.22582 10.9023 4.21023C18.5849 3.66446 29.8654 3.5709 31.138 3.5553H31.1537C31.6565 3.5553 43.3926 3.63327 51.3109 4.21023C51.4052 4.22582 51.5151 4.22582 51.6094 4.24141H51.6408C52.8034 4.36616 54.5631 4.56888 56.1813 6.28415L56.197 6.29975C57.2182 7.34451 57.8309 9.91742 57.9881 11.3832C58.0038 11.5859 58.428 16.3263 58.428 20.9888V25.542C58.428 30.0485 58.0352 34.6174 57.9881 35.132C57.8624 36.0832 57.2654 39.0148 56.1656 40.1999C54.5788 41.9307 52.9605 42.1023 51.7822 42.227C51.6408 42.2426 51.5151 42.2582 51.4052 42.2738C43.4083 42.8508 31.3422 42.9287 31.2323 42.9287ZM11.6721 41.8216C16.2754 42.2426 31.0752 42.4609 31.2166 42.4609C31.3265 42.4609 43.3768 42.383 51.3266 41.806C51.4366 41.7904 51.5623 41.7748 51.7037 41.7592C52.8034 41.6501 54.3274 41.4785 55.7885 39.888C56.7312 38.8744 57.3439 36.208 57.4853 35.0852C57.5324 34.5862 57.9095 30.033 57.9095 25.5576V21.0044C57.9095 16.3731 57.501 11.6483 57.4696 11.4456C57.3282 10.1045 56.7312 7.594 55.8042 6.62721L55.7885 6.61162C54.2803 5.02109 52.6306 4.83396 51.5466 4.70922H51.5151C51.4052 4.69362 51.3109 4.69362 51.2166 4.67803C43.3297 4.11667 31.5936 4.0387 31.1066 4.02311C29.834 4.0387 18.5535 4.13226 10.918 4.67803C10.8394 4.69362 10.7609 4.69362 10.6509 4.70922H10.6352C9.56684 4.83396 7.96432 5.02109 6.45606 6.6584C5.54483 7.64078 4.9321 10.1201 4.75928 11.4612C4.74357 11.6483 4.33508 16.4199 4.33508 20.9888V25.542C4.33508 30.1421 4.74357 34.8981 4.77499 35.1008C4.91639 36.4263 5.51341 38.8744 6.44035 39.8412L6.47178 39.8724C7.82292 41.3538 9.61397 41.5565 10.918 41.6968C11.2008 41.7592 11.4522 41.7748 11.6721 41.8216Z" fill="#986BB2"/>
</svg>